<svg version="1.1" id="Layer_1" xmlns="http://www.w3.org/2000/svg" xmlns:xlink="http://www.w3.org/1999/xlink" x="0px" y="0px"
	 width="92.414px" height="50.226px" viewBox="0 0 92.414 50.226" enable-background="new 0 0 92.414 50.226" xml:space="preserve">
<path d="M0,41.883c0.094,0,0.391-0.031,0.891-0.094c0.266-0.031,0.414,0,0.445,0.094c2.188-0.172,4.172-0.148,5.953,0.07
	c0.094-0.016,0.188-0.078,0.281-0.188s0.18-0.18,0.258-0.211c-0.078,0.219-0.078,0.43,0,0.633c-1.719-0.016-2.656-0.016-2.812,0
	c0-0.047,0.008-0.102,0.023-0.164c0.031-0.047,0.047-0.094,0.047-0.141c-0.203,0.172-0.461,0.297-0.773,0.375
	c-0.094-0.031-0.102-0.07-0.023-0.117c0.094-0.062,0.125-0.125,0.094-0.188c-0.203-0.047-0.281,0.031-0.234,0.234
	c-0.453-0.016-1.156-0.023-2.109-0.023c-0.781,0.016-1.461,0-2.039-0.047V41.883z M22.805,0c-0.047,0.328-0.07,0.719-0.07,1.172
	c0.016,0.516,0.008,0.883-0.023,1.102c0.297-0.031,1.055-0.18,2.273-0.445C26,1.594,26.789,1.477,27.352,1.477
	c0.047,0,0.055-0.023,0.023-0.07c-0.031-0.062-0.016-0.117,0.047-0.164c0.656-0.109,0.945,0.039,0.867,0.445
	c-0.109,0.578-0.086,0.93,0.07,1.055c-0.156,1.375-0.156,2.18,0,2.414c-0.125,0.188-0.125,0.977,0,2.367
	c0.016,0.203,0,0.617-0.047,1.242c-0.031,0.453,0.008,0.82,0.117,1.102c-0.141,1.641-0.141,2.812,0,3.516
	c-0.047,0.016-0.086,0.008-0.117-0.023c-0.047-0.031-0.086-0.047-0.117-0.047c0.141,0.266,0.156,0.867,0.047,1.805
	c-0.094,0.828,0,1.344,0.281,1.547c-0.172,0.031-0.234,0.117-0.188,0.258c0.062,0.109,0.016,0.156-0.141,0.141
	c0,0.516,0,0.75,0,0.703c0.031,0.078,0.094,0.094,0.188,0.047c0.109-0.047,0.18-0.039,0.211,0.023
	c0.016,0.156-0.117,0.242-0.398,0.258c-0.078,0.328-0.102,0.719-0.07,1.172c0.047,0.438,0.023,0.852-0.07,1.242
	c0.047,0.062,0.125,0.117,0.234,0.164c-0.141,0.469-0.234,1.141-0.281,2.016s-0.109,1.477-0.188,1.805
	c-0.031-0.094,0.094-0.094,0.375,0c-0.156,0.219-0.281,0.328-0.375,0.328c0,0.031,0.008,0.109,0.023,0.234s0.023,0.219,0.023,0.281
	c0,0.234-0.094,0.375-0.281,0.422c0.125,0.141,0.172,0.266,0.141,0.375c0.328,0.062,0.461,0.062,0.398,0
	c0,0.031,0.023,0.305,0.07,0.82c0.016,0.297-0.062,0.523-0.234,0.68c0.203,0.094,0.242,0.375,0.117,0.844
	c-0.109,0.453-0.07,0.695,0.117,0.727c-0.141,0.125-0.164,0.375-0.07,0.75c0.078,0.328,0.023,0.523-0.164,0.586
	c0.422,1.109,0.5,2.172,0.234,3.188c0.141,0.156,0.211,0.453,0.211,0.891c-0.016,0.391,0.047,0.617,0.188,0.68
	c0.031-0.109-0.047,0.023-0.234,0.398c0.047,0,0.102-0.016,0.164-0.047c0.047-0.031,0.094-0.039,0.141-0.023
	c0.031,0.5,0.062,0.734,0.094,0.703c0.031,0.031,0.211,0.578,0.539,1.641c0-0.016,0.094,0.18,0.281,0.586
	c0.109,0.219,0.125,0.391,0.047,0.516c0.234,0.062,0.43,0.406,0.586,1.031c0.156,0.547,0.43,0.797,0.82,0.75
	c0.016,0.172-0.062,0.25-0.234,0.234c0.047,0.094,0.148,0.148,0.305,0.164c0.078,0.016,0.133-0.008,0.164-0.07l0.07-0.164
	c0.078,0.047,0.219,0.086,0.422,0.117c0.156,0.016,0.273,0.078,0.352,0.188c-0.031,0.094-0.086,0.109-0.164,0.047
	c-0.078-0.109-0.148-0.148-0.211-0.117c-0.062,0.062-0.023,0.141,0.117,0.234c0.172,0.125,0.234,0.258,0.188,0.398
	c0.25-0.031,0.539-0.047,0.867-0.047c0.297,0,0.531-0.016,0.703-0.047v0.398h-0.633c-0.375,0-0.609-0.023-0.703-0.07
	c-0.125,0.203-0.258,0.336-0.398,0.398c0.031-0.016-0.25-0.125-0.844-0.328l-0.141,0.281c-0.047,0.094-0.133,0.133-0.258,0.117
	c0-0.062,0.039-0.133,0.117-0.211c0.062-0.062,0.078-0.148,0.047-0.258c-0.344-0.016-0.875,0.055-1.594,0.211
	c-0.75,0.172-1.266,0.258-1.547,0.258c0.078-0.141,0.273-0.203,0.586-0.188c0.328,0.016,0.523,0,0.586-0.047
	c-1.578-0.109-2.75-0.055-3.516,0.164c-0.234-0.125-0.578-0.156-1.031-0.094c-0.5,0.078-0.891,0.078-1.172,0v-0.234
	c-0.078-0.016-0.156,0-0.234,0.047s-0.156,0.055-0.234,0.023c0.125,0.281,0.102,0.492-0.07,0.633c-0.047,0-0.102-0.016-0.164-0.047
	c-0.047-0.031-0.102-0.039-0.164-0.023l-0.07-0.562c0.078,0.047-0.781,0.023-2.578-0.07c-0.031,0-0.086-0.023-0.164-0.07
	c-0.062-0.062-0.117-0.094-0.164-0.094c-0.266,0.016-0.664,0.094-1.195,0.234c-0.562,0.141-0.969,0.227-1.219,0.258
	c-0.047,0-0.117-0.031-0.211-0.094c-0.078-0.047-0.141-0.07-0.188-0.07c-0.078,0-0.188,0.047-0.328,0.141
	c-0.156,0.094-0.281,0.148-0.375,0.164c-0.234,0.047-0.594,0.039-1.078-0.023c-0.469-0.062-0.766-0.078-0.891-0.047
	c-0.141,0.031-0.188,0.055-0.141,0.07c-0.078-0.031-0.367-0.109-0.867-0.234c-0.938-0.219-2.531-0.273-4.781-0.164
	c-0.031-0.266-0.031-0.422,0-0.469c0.203,0.078,0.5,0.117,0.891,0.117c0.5,0,0.859,0.016,1.078,0.047
	c-2.5-0.891-4.281-2.141-5.344-3.75c0.016,0.031-0.062,0.031-0.234,0c-0.062-0.062-0.07-0.117-0.023-0.164
	c0.062-0.078,0.102-0.133,0.117-0.164c-0.203,0.109-0.375,0.062-0.516-0.141c-0.188-0.25-0.336-0.383-0.445-0.398
	c0-0.125,0.055-0.203,0.164-0.234c-0.031-0.047-0.094-0.094-0.188-0.141c-0.109-0.047-0.18-0.078-0.211-0.094
	c0.016-0.203,0.047-0.305,0.094-0.305c-0.625-0.547-0.914-1.336-0.867-2.367c0-0.031-0.078-0.055-0.234-0.07
	c-0.344-1.734-0.5-2.75-0.469-3.047c0.109-0.203,0.188-0.648,0.234-1.336c0.047-0.844,0.102-1.391,0.164-1.641
	c0.125-0.109,0.211-0.406,0.258-0.891c0.047-0.438,0.164-0.664,0.352-0.68c0.031-0.078,0.023-0.156-0.023-0.234
	s-0.062-0.156-0.047-0.234c0.094-0.031,0.188-0.133,0.281-0.305c0.078-0.188,0.164-0.297,0.258-0.328l-0.141-0.234
	c0.031-0.016,0.078-0.078,0.141-0.188c0.062-0.094,0.141-0.133,0.234-0.117c0.719-1.688,2.344-3.594,4.875-5.719
	c0.484,0.219,0.719,0.25,0.703,0.094c1.141-0.844,2.344-1.234,3.609-1.172c0.031-0.172-0.07-0.258-0.305-0.258
	c-0.281,0-0.445-0.023-0.492-0.07c0.484-0.078,1.242-0.102,2.273-0.07c1.469,0.047,2.328,0.07,2.578,0.07v0.328
	c0.984-0.031,2.766,0.562,5.344,1.781c0.156-1.172,0.211-2.68,0.164-4.523c-0.047-2.219-0.055-3.711-0.023-4.477
	c0.094-1.516,0.125-2.352,0.094-2.508c-0.016-0.016-0.047-0.031-0.094-0.047l-0.07-0.023c0-0.031,0.023-0.055,0.07-0.07h0.094
	C22.32,8.148,22.258,8,22.148,7.781c-0.094-0.219-0.141-0.383-0.141-0.492c0.047-1.328-0.188-2.141-0.703-2.438
	c-0.016-0.266-0.195-0.523-0.539-0.773c-0.391,0.109-0.578,0.055-0.562-0.164c-0.328,0.25-0.766,0.094-1.312-0.469
	c0.016-0.25,0.125-0.391,0.328-0.422c0.188-0.016,0.359,0.047,0.516,0.188c-0.109,0.031-0.109-0.07,0-0.305
	C20,2.969,20.445,2.914,21.07,2.742s1.07-0.227,1.336-0.164C22.359,1.281,22.414,0.422,22.57,0H22.805z M10.734,41.086
	c0.016-0.125-0.031-0.219-0.141-0.281c-0.156-0.062-0.242-0.125-0.258-0.188c-0.047,0.047,0.141,0.047,0.562,0
	c0.062-0.484,0.086-0.719,0.07-0.703c0.031,0,0.062,0.031,0.094,0.094s0.078,0.086,0.141,0.07l0.305-0.234
	c-0.297-0.297-0.617-0.383-0.961-0.258c-0.125,0.047-0.43,0.234-0.914,0.562c0.219,0.156,0.148,0.25-0.211,0.281
	c-0.344,0.016-0.531-0.078-0.562-0.281c0.047,0,0.102,0.016,0.164,0.047c0.047,0.031,0.094,0.047,0.141,0.047
	c0.031-0.078,0.023-0.148-0.023-0.211s-0.062-0.125-0.047-0.188c-0.938-0.234-1.484-0.391-1.641-0.469
	c-0.016-0.219-0.016-0.32,0-0.305c0.078,0.031,0.148,0.016,0.211-0.047s0.039-0.102-0.07-0.117c0.125-0.172,0-0.273-0.375-0.305
	c0,0.094-0.109,0.172-0.328,0.234c-0.062-0.062-0.062-0.25,0-0.562C6.75,38.289,6.68,38.25,6.68,38.156
	c-0.031-0.188-0.062-0.305-0.094-0.352c0.203-0.375,0.305-0.531,0.305-0.469c-0.609,0.062-0.922,0.086-0.938,0.07
	c-0.047-0.031-0.055-0.086-0.023-0.164c0-0.062-0.047-0.109-0.141-0.141c0.031,0.094-0.031,0.148-0.188,0.164
	c-0.156,0.031-0.25,0-0.281-0.094c0.109-0.156,0.141-0.367,0.094-0.633c-0.031-0.219,0.016-0.367,0.141-0.445
	c0.047,0.109,0.125,0.188,0.234,0.234c-0.031,0.047,0.008-0.055,0.117-0.305c0.047-0.094,0.141-0.125,0.281-0.094
	c-0.016-0.062,0.086-0.297,0.305-0.703c-0.359-0.234-0.852-0.211-1.477,0.07c0-0.375-0.055-0.656-0.164-0.844
	c0.109-0.078,0.242-0.109,0.398-0.094v-0.398c-0.406-0.031-0.664-0.109-0.773-0.234l0.234-0.305c-0.078-0.031-0.148,0-0.211,0.094
	c-0.047,0.062-0.086,0.055-0.117-0.023c0-0.125,0.055-0.242,0.164-0.352C4.688,33,4.766,32.914,4.781,32.883
	c-0.391-0.406-0.391-0.773,0-1.102c0.422,0.062,0.656-0.094,0.703-0.469c-0.219-0.141-0.5-0.148-0.844-0.023
	c-0.344,0.109-0.609,0.094-0.797-0.047c0.125-0.047,0.203-0.18,0.234-0.398c-0.156-0.016-0.234-0.039-0.234-0.07
	c0.047-0.047,0.102-0.164,0.164-0.352c0.031-0.156,0.133-0.25,0.305-0.281c-0.5-0.031-0.812,0.07-0.938,0.305
	c-0.062-0.047-0.094-0.227-0.094-0.539c0.016-0.031,0.086-0.055,0.211-0.07c0.094-0.016,0.133-0.07,0.117-0.164H3.141
	c-0.031,0.266-0.086,0.57-0.164,0.914s-0.133,0.641-0.164,0.891C3.859,36.727,6.5,39.93,10.734,41.086z M3.141,29.578
	c0.109-0.156,0.438-0.234,0.984-0.234c0.516-0.016,0.836-0.172,0.961-0.469c-0.078-0.125-0.195-0.172-0.352-0.141
	C4.562,28.75,4.5,28.828,4.547,28.969c-0.172-0.109-0.25-0.219-0.234-0.328c0-0.047,0.039-0.094,0.117-0.141
	c0.062-0.062,0.102-0.117,0.117-0.164c-0.172-0.016-0.273-0.07-0.305-0.164c0.031-0.094,0.117-0.133,0.258-0.117
	c0.156,0.016,0.25,0.008,0.281-0.023c-0.094-0.047-0.18-0.148-0.258-0.305c-0.078-0.172-0.148-0.281-0.211-0.328
	c0.406-0.062,0.602-0.211,0.586-0.445c0-0.047-0.023-0.164-0.07-0.352c-0.047-0.156-0.062-0.281-0.047-0.375
	c0.031-0.234,0.125-0.352,0.281-0.352c0.281,0,0.398,0.008,0.352,0.023c0.438-0.188,0.719-0.422,0.844-0.703
	c-0.312,0.125-0.57,0.203-0.773,0.234c-0.016-0.031-0.039-0.078-0.07-0.141c-0.047-0.062-0.078-0.117-0.094-0.164
	c0.125,0.016,0.18-0.016,0.164-0.094c-0.062-0.125-0.086-0.195-0.07-0.211c0.125-0.031,0.258-0.125,0.398-0.281
	c0.125-0.156,0.25-0.25,0.375-0.281C6.109,24.227,6.086,24.141,6.117,24c0.047-0.203,0.07-0.297,0.07-0.281
	c-0.078,0-0.156-0.023-0.234-0.07c-0.188,0.375-0.242,0.508-0.164,0.398c-0.094,0.141-0.25,0.188-0.469,0.141
	C4.102,25.781,3.375,27.578,3.141,29.578z M5.836,30.469c0.312,0.031,0.508-0.078,0.586-0.328c-0.031,0-0.305-0.023-0.82-0.07
	c-0.281-0.016-0.453,0.086-0.516,0.305C5.055,30.375,5.305,30.406,5.836,30.469z M5.883,27.703c-0.453-0.016-0.664-0.016-0.633,0
	c-0.031,0.031-0.055,0.102-0.07,0.211c-0.031,0.094-0.062,0.156-0.094,0.188C5.398,28.227,5.664,28.094,5.883,27.703z M5.719,32.953
	C5.875,33,5.977,33.078,6.023,33.188c0.047-0.281,0.023-0.461-0.07-0.539c-0.359,0.125-0.57,0.172-0.633,0.141
	c0.109,0.016,0.133,0.078,0.07,0.188c-0.062,0.094-0.055,0.141,0.023,0.141C5.461,32.961,5.562,32.906,5.719,32.953z M6.141,26.766
	c-0.031,0.016-0.086,0.039-0.164,0.07s-0.141,0.062-0.188,0.094c-0.062-0.047,0.227,0.008,0.867,0.164
	c-0.062-0.203,0.016-0.305,0.234-0.305c0.25-0.016,0.383-0.07,0.398-0.164c-0.094,0.016-0.156-0.023-0.188-0.117
	c-0.016-0.094-0.062-0.133-0.141-0.117c-0.266,0.188-0.469,0.211-0.609,0.07C6.352,26.602,6.281,26.703,6.141,26.766z M6.328,29.344
	c0.156,0.078,0.289,0.109,0.398,0.094c0.031-0.031,0.062-0.102,0.094-0.211c0.016-0.094,0.039-0.156,0.07-0.188
	c-0.156-0.078-0.344-0.086-0.562-0.023c-0.234,0.062-0.359,0.172-0.375,0.328C6.062,29.281,6.188,29.281,6.328,29.344z
	 M6.281,23.391c0.062-0.141,0.133-0.211,0.211-0.211c0.047,0.109,0.109,0.141,0.188,0.094c0.109-0.094,0.203-0.125,0.281-0.094
	c0.156-0.703,0.266-0.992,0.328-0.867c0.266,0.297,0.555,0.086,0.867-0.633c-0.172,0.078-0.266,0.07-0.281-0.023
	c-0.016-0.188-0.031-0.281-0.047-0.281c-0.141,0.297-0.438,0.664-0.891,1.102c-0.453,0.453-0.758,0.812-0.914,1.078
	C6.133,23.57,6.219,23.516,6.281,23.391z M6.352,32.062c0.078,0.047,0.156,0.055,0.234,0.023c0.016-0.094,0.078-0.195,0.188-0.305
	c0.109-0.125,0.172-0.227,0.188-0.305c-0.125,0.016-0.164-0.031-0.117-0.141c0.047-0.094,0.008-0.125-0.117-0.094
	c-0.031,0.062-0.141,0.18-0.328,0.352c-0.156,0.141-0.25,0.281-0.281,0.422C6.195,32,6.273,32.016,6.352,32.062z M7.055,34.359
	c0.047-0.234,0.148-0.414,0.305-0.539c-0.656-0.031-1.023,0.125-1.102,0.469C6.773,34.32,7.039,34.344,7.055,34.359z M7.359,24.023
	c-0.281,0.062-0.516,0.273-0.703,0.633C6.969,24.641,7.203,24.43,7.359,24.023z M6.938,28.336c0.125,0.031,0.188,0.008,0.188-0.07
	C7,28.234,6.984,28.211,7.078,28.195c0.156-0.047,0.227-0.102,0.211-0.164c-0.312-0.047-0.5,0.031-0.562,0.234
	C6.773,28.297,6.844,28.32,6.938,28.336z M7.125,36.258c0,0,0.047-0.062,0.141-0.188s0.203-0.172,0.328-0.141
	c-0.047-0.172,0-0.289,0.141-0.352l0.328-0.117c-0.109-0.031-0.156-0.109-0.141-0.234c-0.281,0-0.492,0.117-0.633,0.352
	c-0.047,0.078-0.102,0.188-0.164,0.328c-0.078,0.172-0.133,0.281-0.164,0.328C7.07,36.25,7.125,36.258,7.125,36.258z M7.758,25.125
	c-0.203,0.031-0.352,0.117-0.445,0.258c-0.125,0.156-0.055,0.25,0.211,0.281C7.523,25.695,7.602,25.516,7.758,25.125z M7.852,37.477
	c-0.203,0.203-0.312,0.367-0.328,0.492h0.633c0.094,0.172,0.219-0.094,0.375-0.797c-0.188,0.031-0.258-0.008-0.211-0.117
	s0.117-0.172,0.211-0.188c-0.094-0.016-0.188-0.008-0.281,0.023c-0.094,0.047-0.18,0.062-0.258,0.047
	C8.07,37.141,8.023,37.32,7.852,37.477z M8.578,39.258c0.109-0.031,0.172-0.07,0.188-0.117c-0.078,0.031-0.195,0-0.352-0.094
	c-0.109-0.078-0.195-0.07-0.258,0.023c0.047,0,0.078,0.055,0.094,0.164s0.062,0.156,0.141,0.141
	C8.391,39.312,8.453,39.273,8.578,39.258z M21.047,38.133c0,0,0.102-0.102,0.305-0.305c0.188-0.188,0.359-0.328,0.516-0.422
	c-0.094-0.016-0.141-0.047-0.141-0.094c0.047-0.219,0.062-0.289,0.047-0.211c0.047,0,0.086,0.023,0.117,0.07
	c0.047,0.047,0.086,0.078,0.117,0.094c-0.016-0.094-0.016-0.391,0-0.891c0.031-0.375-0.047-0.625-0.234-0.75
	c0.172-0.062,0.234-0.25,0.188-0.562c-0.062-0.375-0.047-0.664,0.047-0.867c-0.109-0.375-0.164-0.953-0.164-1.734
	c-0.016-0.812-0.062-1.406-0.141-1.781c0.172,0.016,0.234-0.102,0.188-0.352c-0.062-0.359-0.102-0.531-0.117-0.516h0.094h0.07
	c-0.016-3.562,0.039-6.297,0.164-8.203c-0.266-0.594-0.805-1.078-1.617-1.453c-0.219-0.109-0.578-0.258-1.078-0.445
	c-0.484-0.188-0.844-0.336-1.078-0.445c-0.359,0.094-0.516,0.141-0.469,0.141c-1.391-0.656-3.375-0.625-5.953,0.094
	c0,0.188-0.125,0.398-0.375,0.633c-0.219,0.203-0.305,0.352-0.258,0.445h-0.469c-0.047,0.109-0.016,0.164,0.094,0.164
	s0.156,0.023,0.141,0.07c-0.141,0.031-0.266,0.141-0.375,0.328c-0.125,0.219-0.234,0.344-0.328,0.375
	c0.094,0.047,0.227,0.039,0.398-0.023c0.125-0.031,0.203-0.023,0.234,0.023c-0.266,0.219-0.367,0.328-0.305,0.328
	c0.047-0.109,0.031-0.156-0.047-0.141c-0.125,0.031-0.219,0.023-0.281-0.023c-0.016,0.109,0.023,0.188,0.117,0.234
	c0.125,0.078,0.195,0.133,0.211,0.164c-0.578,0.516-1.031,1.461-1.359,2.836c-0.406,1.719-0.711,2.781-0.914,3.188
	c0.094,0.25,0.141,0.625,0.141,1.125c-0.016,0.625,0.016,1.141,0.094,1.547c0.266-0.016,0.312,0.164,0.141,0.539
	c0.125-0.016,0.18,0.016,0.164,0.094c-0.062,0.125-0.086,0.195-0.07,0.211c0.016,0.031,0.086,0.07,0.211,0.117
	c0.094,0.031,0.148,0.07,0.164,0.117c-0.047,0.016-0.07,0.094-0.07,0.234c-0.219,0.016-0.32,0.016-0.305,0
	c-0.016,0.094,0.023,0.172,0.117,0.234s0.133,0.141,0.117,0.234c-0.062,0-0.125,0.023-0.188,0.07
	c-0.062,0.031-0.133,0.039-0.211,0.023c-0.078-0.094-0.109-0.227-0.094-0.398s-0.008-0.305-0.07-0.398
	c-0.234,1.062-0.156,1.664,0.234,1.805c-0.047-0.172-0.016-0.406,0.094-0.703c0.125,0.109,0.203,0.25,0.234,0.422
	c0.031,0.188-0.023,0.336-0.164,0.445c0.031-0.109-0.031-0.133-0.188-0.07c-0.141,0.078-0.234,0.148-0.281,0.211
	c0,0.031,0.102,0.242,0.305,0.633c0.141,0.266,0.141,0.453,0,0.562c0.156,0.016,0.266,0.102,0.328,0.258
	c0.047,0.156,0.094,0.25,0.141,0.281c0.047-0.031,0.055-0.141,0.023-0.328c-0.016-0.156,0.055-0.227,0.211-0.211
	c0.094,0.141,0.117,0.414,0.07,0.82c-0.047,0.375,0.008,0.648,0.164,0.82c-0.031,0,0.07,0,0.305,0c0.094,0,0.125-0.055,0.094-0.164
	c-0.047,0-0.102,0.016-0.164,0.047c-0.047,0.031-0.094,0.039-0.141,0.023c0.062-0.078,0.07-0.195,0.023-0.352
	c-0.031-0.156-0.039-0.242-0.023-0.258c0.094,0.016,0.18,0.117,0.258,0.305s0.203,0.266,0.375,0.234
	c-0.078,0.047-0.094,0.141-0.047,0.281c0.062,0.141,0.047,0.227-0.047,0.258c-0.047,0-0.086-0.047-0.117-0.141
	c-0.016-0.094-0.055-0.148-0.117-0.164c0.031,0.109-0.016,0.242-0.141,0.398c0.297-0.062,0.5-0.062,0.609,0
	c0.031,0.125,0.016,0.164-0.047,0.117s-0.094-0.039-0.094,0.023c0.938,1.094,2.062,1.922,3.375,2.484
	c1.531,0.688,2.984,0.828,4.359,0.422c0.656-0.609,1.289-0.867,1.898-0.773c0.016-0.109-0.039-0.148-0.164-0.117
	c-0.125,0.016-0.18-0.055-0.164-0.211c0.125,0,0.297-0.133,0.516-0.398c0.156-0.203,0.297-0.227,0.422-0.07
	c-0.078-0.156-0.039-0.305,0.117-0.445c0.141-0.125,0.312-0.188,0.516-0.188C21.133,38.125,21.047,38.133,21.047,38.133z
	 M9.82,20.742c0.438-0.141,0.664-0.43,0.68-0.867c-0.922,0.219-1.602,0.562-2.039,1.031C9.148,20.875,9.602,20.82,9.82,20.742z
	 M9.328,38.203c0.172,0.016,0.273-0.016,0.305-0.094c-0.031-0.016-0.086-0.07-0.164-0.164c-0.062-0.094-0.141-0.141-0.234-0.141
	c0.016,0.062-0.023,0.109-0.117,0.141S8.984,38.031,9,38.109C9.062,38.172,9.172,38.203,9.328,38.203z M9.562,32.32
	c-0.047,0.125-0.18,0.203-0.398,0.234c0-0.016,0.039-0.086,0.117-0.211c0.062-0.094,0.047-0.148-0.047-0.164
	C9.156,32.352,9.266,32.398,9.562,32.32z M12.047,41.391c0.125-0.016,0.234-0.008,0.328,0.023c0-0.047,0.016-0.102,0.047-0.164
	s0.039-0.117,0.023-0.164c-0.047-0.031-0.141-0.039-0.281-0.023c-0.078,0.016-0.109-0.055-0.094-0.211h-0.234
	c0.016,0.094,0.008,0.18-0.023,0.258c-0.047,0.094-0.07,0.164-0.07,0.211C11.836,41.383,11.938,41.406,12.047,41.391z
	 M13.312,40.758c-0.547-0.203-0.914-0.195-1.102,0.023c0.141-0.062,0.234-0.07,0.281-0.023c0.047,0.031,0.008,0.094-0.117,0.188
	c0.172,0.031,0.367,0.047,0.586,0.047c0.25,0.016,0.398,0.023,0.445,0.023c0.281,0.031,0.461,0.211,0.539,0.539
	C14.07,41.227,13.859,40.961,13.312,40.758z M15.445,41.461c-0.234-0.062-0.414-0.109-0.539-0.141
	c-0.5-0.109-0.797-0.031-0.891,0.234c0.203-0.109,0.508-0.125,0.914-0.047c0.438,0.078,0.734,0.094,0.891,0.047
	C15.773,41.555,15.648,41.523,15.445,41.461z M18.188,41.273c-0.531,0.219-0.852,0.422-0.961,0.609c0.062,0,0.281-0.062,0.656-0.188
	c0.344-0.125,0.57-0.172,0.68-0.141c0,0.078-0.055,0.141-0.164,0.188s-0.156,0.117-0.141,0.211c0.062,0.016,0.125,0,0.188-0.047
	s0.133-0.055,0.211-0.023c0,0.016,0.078-0.172,0.234-0.562c0.016,0.062,0.094,0.086,0.234,0.07c0.141,0,0.219,0.031,0.234,0.094
	c0,0.062-0.055,0.094-0.164,0.094c-0.094,0-0.117,0.047-0.07,0.141c0.328,0,0.805,0.016,1.43,0.047
	c0.594,0.031,1.055,0.039,1.383,0.023c-0.078-0.312-0.094-0.828-0.047-1.547c0.047-0.734,0.039-1.281-0.023-1.641
	c-0.25,0.344-0.648,0.719-1.195,1.125c-0.734,0.516-1.172,0.844-1.312,0.984C19.188,40.836,18.797,41.023,18.188,41.273z
	 M21.586,3.844C21.742,4,21.883,4.102,22.008,4.148c-0.016-0.141,0.062-0.32,0.234-0.539c0.141-0.188,0.141-0.32,0-0.398
	c-0.047,0.094-0.227,0.141-0.539,0.141c-0.312,0.016-0.492,0.07-0.539,0.164C21.273,3.562,21.414,3.672,21.586,3.844z
	 M22.336,42.984c0.109-0.016,0.188,0.031,0.234,0.141c0.062,0.094,0.062,0.172,0,0.234h-0.234V42.984z M22.406,43.594h0.234
	c-0.047,0.219-0.125,0.328-0.234,0.328V43.594z M22.523,44.109c0.047,0.031,0.086,0.047,0.117,0.047
	c-0.016,0.031-0.039,0.078-0.07,0.141c-0.047,0.078-0.078,0.133-0.094,0.164c0.047,0,0.023-0.133-0.07-0.398
	C22.453,44.062,22.492,44.078,22.523,44.109z M22.758,38.438c0,0,0.055-0.023,0.164-0.07c0.094-0.031,0.156-0.008,0.188,0.07
	c0.016-0.016-0.07,0-0.258,0.047c-0.094,0.031-0.141,0.094-0.141,0.188c0.203,0.016,0.312,0.039,0.328,0.07
	c0.031-0.078,0.031,0.211,0,0.867c-0.031,0-0.07-0.016-0.117-0.047c-0.031-0.031-0.07-0.039-0.117-0.023
	c0.047,1.047,0.047,1.641,0,1.781c2.469,0.188,4.219,0.188,5.25,0c-0.172-0.047-0.695-0.047-1.57,0
	c-0.812,0.047-1.359-0.031-1.641-0.234c0.031-0.078,0.109-0.117,0.234-0.117c0.078-0.016,0.078-0.102,0-0.258
	c0.688-0.047,1.047-0.078,1.078-0.094c-0.047,0-0.07-0.078-0.07-0.234c-0.656,0.016-1.07-0.031-1.242-0.141
	c0.016,0.094-0.07,0.148-0.258,0.164c-0.172,0.016-0.273-0.016-0.305-0.094c0-0.062,0.055-0.094,0.164-0.094
	c0.094,0,0.117-0.047,0.07-0.141c-0.031-0.047-0.102-0.055-0.211-0.023c-0.094,0.016-0.148-0.031-0.164-0.141
	c0.156,0.016,0.227-0.023,0.211-0.117c0-0.031-0.008-0.086-0.023-0.164c-0.031-0.078-0.047-0.141-0.047-0.188h0.328
	c0.016-0.219-0.062-0.32-0.234-0.305c-0.047,0-0.078,0.039-0.094,0.117s-0.039,0.117-0.07,0.117
	c-0.031-0.109-0.117-0.195-0.258-0.258c-0.156-0.094-0.258-0.164-0.305-0.211c0.266-0.484,0.398-0.773,0.398-0.867
	c0,0.047-0.039,0.07-0.117,0.07c-0.062,0-0.102-0.023-0.117-0.07c0.062-0.203,0.312-0.469,0.75-0.797
	c0.391-0.281,0.562-0.562,0.516-0.844c-0.047,0.156-0.227,0.227-0.539,0.211c-0.344-0.031-0.555,0.031-0.633,0.188
	c-0.031-0.031-0.062-0.07-0.094-0.117c-0.031-0.062-0.055-0.109-0.07-0.141c-0.078-0.078-0.156-0.07-0.234,0.023
	c0.031-0.109,0.008-0.188-0.07-0.234c-0.078-0.031-0.109-0.086-0.094-0.164c0.047-0.062,0.094-0.109,0.141-0.141l0.094-0.047
	c0.016-0.016-0.008-0.109-0.07-0.281c0.094,0.016,0.188-0.039,0.281-0.164c0.062-0.109,0.18-0.133,0.352-0.07
	c-0.078-0.062-0.148-0.227-0.211-0.492c-0.062-0.25-0.156-0.398-0.281-0.445c-0.078,0.078-0.078,0.148,0,0.211
	c0.109,0.078,0.164,0.141,0.164,0.188c-0.141,0.156-0.273,0.125-0.398-0.094c0.062-0.062,0.062-0.164,0-0.305
	c-0.062-0.125-0.031-0.234,0.094-0.328c0.031,0.016,0.062,0.055,0.094,0.117c0.031,0.047,0.078,0.062,0.141,0.047
	c0-0.062-0.016-0.125-0.047-0.188c-0.047-0.062-0.062-0.133-0.047-0.211c0.141-0.031,0.414-0.07,0.82-0.117
	c0.422-0.047,0.75-0.109,0.984-0.188c-1.391-0.469-2.016-0.625-1.875-0.469c-0.016-0.094,0.031-0.227,0.141-0.398
	c0.078-0.125,0.086-0.227,0.023-0.305c0.281-0.047,0.516-0.281,0.703-0.703c-0.312-0.062-0.516-0.172-0.609-0.328l-0.258-0.445
	c0.031-0.109,0.109-0.164,0.234-0.164c-0.016-0.25-0.016-0.383,0-0.398c-0.156-0.016-0.258-0.062-0.305-0.141
	c0.266-0.25,0.312-0.438,0.141-0.562c0.047-0.016,0.156-0.086,0.328-0.211c0.094-0.062,0.195-0.047,0.305,0.047
	c0.016-0.125,0.07-0.172,0.164-0.141c-0.125-0.219,0.031-0.43,0.469-0.633C24.367,28.68,24,28.578,23.812,28.5
	c0.094-0.062,0.133-0.18,0.117-0.352s0.023-0.289,0.117-0.352c-0.094-0.047-0.164-0.164-0.211-0.352
	c-0.047-0.203-0.109-0.32-0.188-0.352c0.062-0.078,0.148-0.398,0.258-0.961c0.094,0.062,0.172,0.07,0.234,0.023
	c0.094-0.078,0.195-0.109,0.305-0.094c0.125-0.328,0.227-0.539,0.305-0.633c-0.125-0.062-0.367-0.086-0.727-0.07
	c-0.297,0-0.5-0.078-0.609-0.234c0.266-0.172,0.375-0.406,0.328-0.703c0.375,0,0.586-0.078,0.633-0.234
	c0.016-0.078-0.039-0.102-0.164-0.07c-0.125,0.016-0.18-0.016-0.164-0.094c0.031-0.156,0.156-0.305,0.375-0.445
	c0.219-0.125,0.328-0.312,0.328-0.562c-0.516-0.062-0.75-0.117-0.703-0.164c-0.016-0.203-0.039-0.305-0.07-0.305
	c-0.031,0.016-0.055,0.07-0.07,0.164s-0.047,0.141-0.094,0.141c-0.016-0.047-0.062-0.086-0.141-0.117
	c-0.094-0.047-0.148-0.086-0.164-0.117l0.164-0.07c0.062-0.016,0.086-0.07,0.07-0.164c-0.094-0.047-0.18-0.023-0.258,0.07
	c-0.062,0.078-0.109,0.086-0.141,0.023c0-0.016,0.133-0.258,0.398-0.727c0.078-0.031,0.234-0.031,0.469,0
	c0.172,0.016,0.305-0.031,0.398-0.141c0.281,0.094,0.625,0.109,1.031,0.047c0.453-0.094,0.625-0.297,0.516-0.609
	c0.031,0.078-0.016,0.109-0.141,0.094s-0.18,0.008-0.164,0.07c0.047,0.016,0.086,0.039,0.117,0.07
	c0.031,0.047,0.016,0.078-0.047,0.094c-0.125-0.016-0.25,0.016-0.375,0.094c-0.141,0.078-0.25,0.125-0.328,0.141
	c-0.016-0.062,0.008-0.156,0.07-0.281c0.047-0.094,0.023-0.156-0.07-0.188c-0.109,0.031-0.172,0.109-0.188,0.234
	c0,0.125-0.039,0.203-0.117,0.234c0.031,0.078-0.148,0-0.539-0.234c-0.016-0.141,0.008-0.25,0.07-0.328
	c-0.312,0.062-0.492,0.016-0.539-0.141c0.094-0.203,0.219-0.406,0.375-0.609c0.141-0.172,0.25-0.336,0.328-0.492
	c-0.125,0.016-0.25,0.008-0.375-0.023c-0.125-0.047-0.234-0.062-0.328-0.047c0.016-0.141-0.039-0.242-0.164-0.305
	c-0.141-0.078-0.219-0.133-0.234-0.164c-0.047-0.219,0.023-0.445,0.211-0.68c0.031-0.047,0.117-0.148,0.258-0.305
	c0.109-0.109,0.188-0.203,0.234-0.281c-0.141,0.047-0.508,0.047-1.102,0c-0.016,1.172,0.039,1.828,0.164,1.969
	c-0.188,0-0.266,0.047-0.234,0.141c0.047,0.016,0.109,0,0.188-0.047c0.031-0.016,0.047,0.031,0.047,0.141
	c0-0.031-0.078-0.031-0.234,0c-0.016,0.047,0.062,0.227,0.234,0.539c-0.234,0.078-0.359,0.242-0.375,0.492
	c0,0.078,0.008,0.188,0.023,0.328c0.031,0.156,0.039,0.273,0.023,0.352c0,0.078-0.047,0.602-0.141,1.57
	c-0.062,0.688-0.062,1.234,0,1.641c-0.141,0.297-0.172,0.758-0.094,1.383c0.062,0.688,0.062,1.141,0,1.359
	c0,0.031-0.039,0.07-0.117,0.117c-0.078,0.031-0.117,0.07-0.117,0.117l0.094,0.07c0.047,0.062,0.07,0.117,0.07,0.164
	c0,0.094,0,0.266,0,0.516c-0.016,0.234-0.016,0.43,0,0.586c0.219,3.281,0.297,4.844,0.234,4.688
	c-0.031,0.109-0.016,0.297,0.047,0.562c0.047,0.266,0.031,0.5-0.047,0.703c0.016,0.031,0.07,0.078,0.164,0.141
	c0.094,0.047,0.141,0.102,0.141,0.164c-0.047,0.078-0.102,0.078-0.164,0c-0.078-0.062-0.125-0.062-0.141,0
	c0.109,1.375,0.055,2.266-0.164,2.672C22.742,38.414,22.758,38.438,22.758,38.438z M24.211,2.906
	c-0.891,0.359-1.391,1.164-1.5,2.414c0.062,0,0.141,0,0.234,0c0.125,0,0.211,0,0.258,0c0.172,0,0.242-0.078,0.211-0.234
	c-0.141,0.062-0.234,0.039-0.281-0.07c-0.031-0.125-0.094-0.18-0.188-0.164c0.141-0.141,0.352-0.43,0.633-0.867
	c0.266-0.438,0.5-0.75,0.703-0.938C24.219,3.031,24.195,2.984,24.211,2.906z M23.109,33.773c0.016,0.25,0.039,0.422,0.07,0.516
	c-0.25-0.094-0.328-0.383-0.234-0.867C23.055,33.469,23.109,33.586,23.109,33.773z M23.414,30.375c-0.047,0-0.117-0.023-0.211-0.07
	c-0.078-0.031-0.164-0.031-0.258,0c-0.016-0.078,0.008-0.141,0.07-0.188s0.094-0.094,0.094-0.141
	C23.312,30.133,23.414,30.266,23.414,30.375z M25.055,6.656c0.078-0.156,0.109-0.258,0.094-0.305c-0.938-0.016-1.438-0.016-1.5,0
	c0,0.047,0.023,0.102,0.07,0.164c0.031,0.062,0.039,0.133,0.023,0.211c-0.172-0.141-0.359-0.188-0.562-0.141
	c-0.016,0.281-0.008,0.82,0.023,1.617c0.016,0.625-0.016,1.125-0.094,1.5c0.156,0.188,0.211,1.023,0.164,2.508
	c-0.094,2.703-0.148,4.578-0.164,5.625c0.375-0.094,0.555-0.117,0.539-0.07c-0.078-0.297,0.008-0.508,0.258-0.633
	c0.156,0.047,0.359,0.039,0.609-0.023c0.219-0.047,0.406-0.039,0.562,0.023c0.016-0.219-0.117-0.344-0.398-0.375
	c-0.328-0.062-0.508-0.141-0.539-0.234c0.031,0.141,0.266-0.406,0.703-1.641c-0.094,0.016-0.234,0.07-0.422,0.164
	c-0.156,0.094-0.305,0.141-0.445,0.141c0.016-0.094-0.023-0.188-0.117-0.281c-0.062-0.094-0.078-0.211-0.047-0.352
	c0.047-0.047,0.203-0.125,0.469-0.234c0.062-0.094,0.062-0.188,0-0.281c-0.078-0.094-0.102-0.211-0.07-0.352
	c0.25,0.016,0.383-0.031,0.398-0.141c-0.172,0-0.438-0.188-0.797-0.562c0-0.031,0.039-0.055,0.117-0.07s0.117-0.039,0.117-0.07
	c-0.109,0.016-0.164-0.047-0.164-0.188c0-0.172-0.023-0.266-0.07-0.281c0.547-0.25,0.891-0.25,1.031,0
	c-0.047-0.125,0-0.195,0.141-0.211c0.125-0.031,0.18-0.094,0.164-0.188c-0.094-0.047-0.32-0.055-0.68-0.023
	c-0.312,0.031-0.531-0.016-0.656-0.141c0.031-0.047,0.141-0.07,0.328-0.07c0.172,0.016,0.273-0.008,0.305-0.07
	c-0.172,0-0.227-0.039-0.164-0.117c0.062-0.109,0.039-0.18-0.07-0.211h0.234c0.094,0,0.172,0,0.234,0
	c0.156-0.016,0.234-0.094,0.234-0.234c-0.047-0.016-0.148,0.008-0.305,0.07c-0.125,0.047-0.203,0.023-0.234-0.07
	c0.047,0,0.117-0.039,0.211-0.117c0.078-0.078,0.164-0.117,0.258-0.117c-0.109-0.062,0.227-0.008,1.008,0.164
	c-0.047-0.141-0.023-0.234,0.07-0.281c0.125-0.047,0.18-0.109,0.164-0.188c0.078,0.078-0.367,0-1.336-0.234
	c0.016,0.062,0.094,0.117,0.234,0.164c0.172,0.047,0.281,0.125,0.328,0.234c-0.562,0.141-0.828,0.188-0.797,0.141
	c0-0.172-0.062-0.258-0.188-0.258c-0.031,0-0.203,0.039-0.516,0.117c0.125-0.109,0.148-0.219,0.07-0.328
	c-0.156-0.219-0.234-0.32-0.234-0.305c0.453-0.344,0.82-0.531,1.102-0.562c-0.062-0.109-0.023-0.258,0.117-0.445
	c0.031-0.031,0.094-0.102,0.188-0.211c0.094-0.078,0.148-0.141,0.164-0.188C25,8.586,24.688,8.609,24.281,8.766
	c-0.266-0.297-0.391-0.43-0.375-0.398c-0.031,0.047,0.102-0.117,0.398-0.492c0.141-0.188,0.188-0.414,0.141-0.68
	c0.25-0.094,0.383-0.117,0.398-0.07c-0.172-0.016-0.281-0.07-0.328-0.164c0.047-0.078,0.156-0.102,0.328-0.07
	c0.156,0.031,0.234,0.031,0.234,0C25,6.844,24.992,6.766,25.055,6.656z M24.141,5.484C24,5.422,24,5.32,24.141,5.18
	c0.266-0.234,0.391-0.344,0.375-0.328c-0.188-0.062-0.375-0.008-0.562,0.164c-0.047,0.047-0.117,0.133-0.211,0.258
	c-0.109,0.141-0.188,0.234-0.234,0.281C23.805,5.711,24.016,5.688,24.141,5.484z M24.375,35.062
	c0.016-0.188-0.039-0.289-0.164-0.305c-0.047,0.219-0.07,0.32-0.07,0.305H24.375z M24.68,30.609c0.062,0,0.156,0,0.281,0
	c0.109,0.016,0.195,0.023,0.258,0.023c0.188-0.016,0.32-0.125,0.398-0.328c0.016-0.344-0.008-0.477-0.07-0.398
	c-0.234,0.078-0.336,0.117-0.305,0.117c-0.062,0-0.117-0.07-0.164-0.211c-0.031,0.172-0.188,0.305-0.469,0.398
	C24.578,30.367,24.602,30.5,24.68,30.609z M25.031,3.891c0.172-0.141,0.211-0.289,0.117-0.445c-0.016,0.109-0.125,0.258-0.328,0.445
	c-0.172,0.156-0.242,0.266-0.211,0.328C24.578,4.25,24.719,4.141,25.031,3.891z M25.266,14.039c0.094-0.031,0.164-0.055,0.211-0.07
	c0.141-0.047,0.211-0.141,0.211-0.281c-0.125,0.047-0.297,0.062-0.516,0.047c-0.188-0.016-0.328,0-0.422,0.047
	c0.312,0.094,0.414,0.117,0.305,0.07c0.078,0.031,0.086,0.109,0.023,0.234C25.109,14.07,25.172,14.055,25.266,14.039z
	 M25.172,38.625c0.156-0.172,0.172-0.312,0.047-0.422c-0.281,0.188-0.438,0.344-0.469,0.469
	C24.891,38.797,25.031,38.781,25.172,38.625z M25.922,5.391c-0.094-0.016-0.141-0.039-0.141-0.07
	c-0.094,0.031,0.062-0.125,0.469-0.469c0.094-0.031,0.141-0.055,0.141-0.07c-0.75-0.109-1.266,0.203-1.547,0.938
	C25.328,5.75,25.688,5.641,25.922,5.391z M25.078,27.633c0.016-0.094,0.148-0.125,0.398-0.094c0.203,0.031,0.273-0.039,0.211-0.211
	c-0.25,0.125-0.508,0.125-0.773,0C24.883,27.516,24.938,27.617,25.078,27.633z M25.008,24.352c-0.094,0.125-0.102,0.203-0.023,0.234
	c0.047-0.078,0.133-0.078,0.258,0c0.125,0.094,0.25,0.117,0.375,0.07c-0.016-0.078,0-0.141,0.047-0.188
	c0.078-0.047,0.117-0.086,0.117-0.117c-0.156,0-0.367-0.133-0.633-0.398c0,0.031-0.023,0.062-0.07,0.094
	c-0.047,0.016-0.078,0.039-0.094,0.07C25.094,24.164,25.102,24.242,25.008,24.352z M25.312,7.828
	c0.141,0.016,0.242,0.039,0.305,0.07c-0.016-0.078,0-0.133,0.047-0.164c0.078-0.047,0.117-0.094,0.117-0.141
	c-0.078,0.062-0.234,0.078-0.469,0.047C25.109,7.625,25,7.664,24.984,7.758C25.047,7.773,25.156,7.797,25.312,7.828z M25.453,32.32
	v-0.305h-0.234c0.031,0.078,0.016,0.141-0.047,0.188s-0.094,0.086-0.094,0.117H25.453z M25.617,13.242
	c0.141,0.016,0.219-0.016,0.234-0.094c-0.031,0-0.078-0.016-0.141-0.047s-0.109-0.055-0.141-0.07
	c-0.109-0.031-0.172,0.008-0.188,0.117C25.414,13.195,25.492,13.227,25.617,13.242z M25.477,15.422
	c-0.062,0.109-0.07,0.188-0.023,0.234c0.234,0.094,0.508,0.023,0.82-0.211c0.328-0.234,0.477-0.477,0.445-0.727
	c-0.141,0.109-0.352,0.18-0.633,0.211s-0.492,0.094-0.633,0.188C25.547,15.195,25.555,15.297,25.477,15.422z M25.688,25.945
	c-0.016,0.016-0.047,0.047-0.094,0.094c-0.062,0.031-0.109,0.062-0.141,0.094h0.797c0.016-0.297-0.039-0.477-0.164-0.539
	c-0.141,0.172-0.273,0.195-0.398,0.07C25.766,25.789,25.766,25.883,25.688,25.945z M25.547,27c0.172,0.125,0.352,0.148,0.539,0.07
	c0.062-0.031,0.078-0.055,0.047-0.07s-0.125-0.016-0.281,0C25.617,27.047,25.516,27.047,25.547,27z M25.617,23.086
	c-0.016,0.156,0.047,0.234,0.188,0.234c0.109-0.016,0.203-0.062,0.281-0.141C26.023,23.102,25.867,23.07,25.617,23.086z
	 M26.719,9.633C26.844,9.305,26.945,9.094,27.023,9c-0.203-0.125-0.539-0.18-1.008-0.164C26,8.977,25.938,9.117,25.828,9.258
	c-0.125,0.156-0.195,0.281-0.211,0.375C25.82,9.602,26.188,9.602,26.719,9.633z M26.109,28.969c0.172,0.141,0.297,0.141,0.375,0
	c-0.344-0.172-0.531-0.305-0.562-0.398c0.031,0,0.055-0.008,0.07-0.023c0-0.031-0.023-0.047-0.07-0.047
	c-0.016,0.062-0.062,0.086-0.141,0.07C25.844,28.727,25.953,28.859,26.109,28.969z M26.156,37.266
	c-0.016-0.062,0.023-0.141,0.117-0.234c0.078-0.062,0.07-0.117-0.023-0.164c-0.031,0.031-0.125,0.07-0.281,0.117
	c-0.125,0.031-0.188,0.094-0.188,0.188C25.938,37.156,26.062,37.188,26.156,37.266z M26.367,6.727
	c0.141-0.172,0.203-0.328,0.188-0.469c-0.312-0.031-0.523,0.18-0.633,0.633C26.078,6.953,26.227,6.898,26.367,6.727z M26.648,12.281
	c-0.047-0.125-0.039-0.211,0.023-0.258c0.156-0.125,0.227-0.164,0.211-0.117c-0.281-0.188-0.602-0.062-0.961,0.375H26.648z
	 M26.414,28.5c0.188,0.062,0.312,0.062,0.375,0c-0.094-0.031-0.102-0.141-0.023-0.328c0.062-0.156,0.023-0.234-0.117-0.234
	c0,0.125-0.094,0.211-0.281,0.258s-0.281,0.117-0.281,0.211C26.117,28.391,26.227,28.422,26.414,28.5z M26.719,30.844
	c-0.016-0.234-0.07-0.391-0.164-0.469c0,0.109-0.078,0.195-0.234,0.258s-0.234,0.156-0.234,0.281
	C26.555,30.836,26.766,30.812,26.719,30.844z M26.719,33.727c-0.031-0.094-0.023-0.258,0.023-0.492
	c0.031-0.203,0.023-0.32-0.023-0.352c-0.422,0.172-0.578,0.273-0.469,0.305c0.094,0.141,0.094,0.266,0,0.375
	c-0.109,0.141-0.164,0.25-0.164,0.328C26.289,33.703,26.5,33.648,26.719,33.727z M26.859,3.82c0.312-0.062,0.5-0.164,0.562-0.305
	c-0.266-0.125-0.57-0.141-0.914-0.047c-0.375,0.109-0.461,0.312-0.258,0.609C26.328,3.984,26.531,3.898,26.859,3.82z M26.203,22.922
	c0,0,0.078,0.008,0.234,0.023c0.125,0.016,0.242-0.016,0.352-0.094v-0.375l0.328,0.07c-0.219-0.5-0.25-0.734-0.094-0.703
	c-0.031,0.125-0.211,0.305-0.539,0.539c-0.266,0.203-0.375,0.391-0.328,0.562C26.188,22.93,26.203,22.922,26.203,22.922z
	 M26.812,2.625c0.219-0.031,0.398-0.047,0.539-0.047c-0.016-0.062,0-0.133,0.047-0.211c0.062-0.078,0.094-0.133,0.094-0.164
	c-0.875,0.344-1.289,0.5-1.242,0.469C26.406,2.688,26.594,2.672,26.812,2.625z M26.555,24.891c0.031-0.047,0.117-0.078,0.258-0.094
	s0.211-0.062,0.211-0.141c-0.062,0.016-0.086-0.039-0.07-0.164s-0.008-0.172-0.07-0.141c-0.031,0.203-0.195,0.281-0.492,0.234
	C26.406,24.742,26.461,24.844,26.555,24.891z M26.508,38.344c-0.062,0.141,0.008,0.227,0.211,0.258c0-0.219,0.039-0.328,0.117-0.328
	c0.203,0,0.297,0,0.281,0c-0.047-0.141,0.062-0.32,0.328-0.539c0.219-0.172,0.234-0.328,0.047-0.469
	c-0.125,0.312-0.406,0.516-0.844,0.609C26.664,37.953,26.617,38.109,26.508,38.344z M26.883,18.797
	c0.094,0.047,0.195,0.07,0.305,0.07c0.062-0.078,0.078-0.195,0.047-0.352s-0.023-0.273,0.023-0.352
	c-0.031,0-0.062-0.016-0.094-0.047c-0.047-0.031-0.094-0.039-0.141-0.023c-0.031,0.078-0.109,0.18-0.234,0.305
	s-0.203,0.227-0.234,0.305C26.68,18.719,26.789,18.75,26.883,18.797z M26.695,24.07c0.078-0.016,0.125-0.023,0.141-0.023
	c0.109-0.031,0.148-0.117,0.117-0.258c-0.266,0.062-0.398,0.172-0.398,0.328C26.586,24.102,26.633,24.086,26.695,24.07z
	 M27.422,13.852v-0.469h-0.773l0.305,0.469H27.422z M27.352,16.43c-0.062-0.078-0.07-0.234-0.023-0.469
	c0.031-0.203-0.016-0.328-0.141-0.375c0.047,0.203-0.023,0.359-0.211,0.469c-0.219,0.125-0.328,0.25-0.328,0.375H27.352z
	 M26.93,11.016c0.094-0.016,0.18-0.008,0.258,0.023c-0.094-0.156-0.086-0.234,0.023-0.234c0.109,0.016,0.203,0.07,0.281,0.164V10.57
	c-0.203-0.047-0.367-0.016-0.492,0.094c-0.281,0.266-0.375,0.367-0.281,0.305C26.781,11.016,26.852,11.031,26.93,11.016z
	 M27.258,8.133c-0.141,0.031-0.219,0.062-0.234,0.094c0.078-0.031,0.148-0.023,0.211,0.023s0.125,0.062,0.188,0.047
	c-0.016-0.859-0.07-1.352-0.164-1.477c-0.031,0.141-0.125,0.336-0.281,0.586c-0.156,0.234-0.242,0.453-0.258,0.656
	C27.094,8.172,27.273,8.195,27.258,8.133z M27.141,19.875c0.172-0.062,0.188-0.141,0.047-0.234c0.016,0.078-0.047,0.109-0.188,0.094
	c-0.156-0.031-0.227-0.008-0.211,0.07C26.852,19.898,26.969,19.922,27.141,19.875z M27.258,5.555
	c0.109,0.078,0.164-0.102,0.164-0.539c-0.219-0.047-0.32-0.078-0.305-0.094c0.047,0.156,0.023,0.281-0.07,0.375
	c-0.109,0.094-0.164,0.18-0.164,0.258C27.164,5.461,27.289,5.461,27.258,5.555z M27.375,17.484c0.016-0.062-0.047-0.102-0.188-0.117
	c-0.062,0.062-0.078,0.148-0.047,0.258s0.102,0.156,0.211,0.141C27.352,17.875,27.359,17.781,27.375,17.484z M27.961,40.312
	c-0.094-0.078-0.227-0.102-0.398-0.07c-0.188,0.031-0.289,0.109-0.305,0.234C27.461,40.633,27.695,40.578,27.961,40.312z
	 M28.898,41.297c0.016,0-0.109-0.016-0.375-0.047c0.203,0.141,0.477,0.195,0.82,0.164c0.328-0.047,0.523-0.125,0.586-0.234
	c-0.484-0.141-0.773-0.195-0.867-0.164C29.078,41.188,29.023,41.281,28.898,41.297z M28.758,18c0.188-0.094,1.281-0.148,3.281-0.164
	c0.094,0,0.234-0.008,0.422-0.023c0.219-0.031,0.375-0.055,0.469-0.07c0.359-0.016,0.586,0.102,0.68,0.352
	C33.016,18.031,31.398,18,28.758,18z M29.648,16.406c0.031,0.109,0.102,0.148,0.211,0.117c-0.047,0.141-0.125,0.172-0.234,0.094
	c-0.125-0.094-0.18-0.203-0.164-0.328C29.539,16.258,29.602,16.297,29.648,16.406z"/>
<path d="M36.797,18c3.922-0.094,5.945-0.148,6.07-0.164c0.031,0,0.062,0.102,0.094,0.305c0.031,0,0.109-0.023,0.234-0.07
	c0.156-0.062,0.273-0.102,0.352-0.117c0.266-0.062,0.375-0.023,0.328,0.117c0.078,0.016,0.133-0.008,0.164-0.07l0.07-0.164
	c0.047,0,0.094,0.039,0.141,0.117c0.062,0.062,0.117,0.102,0.164,0.117c0.344-0.031,0.969-0.094,1.875-0.188
	c0.844-0.109,1.508-0.18,1.992-0.211c1.594-0.094,2.898,0.039,3.914,0.398c0.109-0.078,0.312-0.117,0.609-0.117
	c0.328-0.016,0.555,0.047,0.68,0.188c0.188-0.172,0.5-0.242,0.938-0.211c0.562,0.047,0.945,0.039,1.148-0.023
	c0.047,0.047,0.062,0.109,0.047,0.188c-0.016,0.062,0.023,0.102,0.117,0.117c-0.297-0.031-0.719-0.023-1.266,0.023
	c-0.578,0.047-1.109,0.039-1.594-0.023c0.219,0.188,0.539,0.359,0.961,0.516c0.5,0.188,0.82,0.328,0.961,0.422
	c0.094,0.047,0.234,0.172,0.422,0.375c0.188,0.188,0.328,0.312,0.422,0.375c0.047,0.031,0.133,0.062,0.258,0.094
	c0.109,0.016,0.18,0.039,0.211,0.07c0.047,0.047,0.109,0.117,0.188,0.211c0.078,0.109,0.133,0.18,0.164,0.211
	c0.156,0.188,0.344,0.281,0.562,0.281c0.734,1.219,1.273,2.484,1.617,3.797c0.438,1.703,0.469,3.195,0.094,4.477
	c0,0.031,0.023,0.055,0.07,0.07c0.047,0.031,0.07,0.062,0.07,0.094c-0.016,0.234-0.117,1.031-0.305,2.391
	c-0.141,1.047-0.234,1.906-0.281,2.578c-0.094,2.016,0.234,3.586,0.984,4.711c1.047,0.953,2.047,1.617,3,1.992
	c0,0.062-0.016,0.148-0.047,0.258c-0.016,0.125-0.023,0.211-0.023,0.258c-0.016,0.188,0.031,0.32,0.141,0.398
	c0,0.047,0.055,0.055,0.164,0.023c0.125-0.047,0.227-0.055,0.305-0.023c-0.016,0.094,0.008,0.148,0.07,0.164v0.234
	c0.016-0.016-0.164-0.094-0.539-0.234c-0.078,0.031-0.172,0.094-0.281,0.188c-0.141,0.109-0.227,0.172-0.258,0.188
	c-5.359-0.062-8.281-0.141-8.766-0.234c-0.094-0.016-0.148,0.039-0.164,0.164c-0.25-0.141-0.555-0.195-0.914-0.164
	c0-0.031,0.078-0.055,0.234-0.07c-0.234-0.609-0.211-1.25,0.07-1.922c-0.766,0.484-2.023,1.07-3.773,1.758
	C48.164,42,47.625,42.07,46.875,42.07c-0.906,0.016-1.523,0.055-1.852,0.117c-0.031-0.125-0.055-0.195-0.07-0.211
	c-0.062-0.047-0.188-0.055-0.375-0.023l0.141,0.234c-0.141,0.016-0.25,0.008-0.328-0.023c-0.078-0.047-0.07-0.117,0.023-0.211
	c-0.344,0.016-0.93-0.094-1.758-0.328c-0.688-0.188-1.18-0.211-1.477-0.07c-0.312-0.125-0.656-0.406-1.031-0.844
	c-0.391-0.469-0.711-0.773-0.961-0.914c-0.859-1.375-1.32-2.32-1.383-2.836c0.047-1.703,0.219-3.023,0.516-3.961
	c0.453-1.359,1.203-2.219,2.25-2.578c0.062-0.016,0.125-0.062,0.188-0.141c0.062-0.094,0.125-0.148,0.188-0.164
	c0.062-0.062,0.117-0.07,0.164-0.023c0.078,0.062,0.125,0.094,0.141,0.094c0.094-0.234,0.25-0.43,0.469-0.586
	c0.219-0.172,0.453-0.227,0.703-0.164c0.062-0.109,0.188-0.266,0.375-0.469c3.094-1.047,4.969-1.555,5.625-1.523
	c0.047-0.109,0.18-0.195,0.398-0.258c0.234-0.062,0.383-0.133,0.445-0.211c0.703,0.031,1.727-0.047,3.07-0.234
	c0-0.016,0-0.68,0-1.992c0-0.625-0.359-2.242-1.078-4.852c-0.188-0.297-0.539-0.531-1.055-0.703
	c-0.109-0.031-0.328-0.086-0.656-0.164c-0.266-0.078-0.461-0.141-0.586-0.188c-0.156,0.078-0.375,0.188-0.656,0.328
	c-0.328,0.172-0.547,0.289-0.656,0.352c-0.656,0.688-1.117,1.812-1.383,3.375c-0.219,1.297-0.531,2.141-0.938,2.531
	c-0.516,0.078-1.102,0.258-1.758,0.539c-0.703-0.172-1.164-0.328-1.383-0.469c-0.422-0.266-0.625-0.672-0.609-1.219
	c-0.281-0.375-0.617-0.961-1.008-1.758c0.656-1.703,2.062-3.109,4.219-4.219c-0.172-0.047-0.555-0.047-1.148,0
	c-0.516,0.047-0.953-0.008-1.312-0.164c-0.797,0.125-1.703,0.18-2.719,0.164c-1.547-0.016-2.484-0.016-2.812,0V18z M37.336,42.094
	c0.078-0.109,0.188-0.172,0.328-0.188c0.172-0.047,0.266,0.016,0.281,0.188H37.336z M39.094,41.859
	c-0.047,0.172-0.211,0.273-0.492,0.305c-0.281,0.016-0.445-0.086-0.492-0.305C38.031,41.797,38.359,41.797,39.094,41.859z
	 M40.5,39.727c0,0.125,0.07,0.242,0.211,0.352c0.156,0.109,0.234,0.219,0.234,0.328c1.719,0.469,3.156,0.727,4.312,0.773
	c-0.016-0.094,0-0.172,0.047-0.234c0.062-0.078,0.102-0.125,0.117-0.141c-1.219,0.078-1.961,0.078-2.227,0
	c0.078-0.266,0.25-0.5,0.516-0.703c-0.094-0.016-0.453-0.047-1.078-0.094c-0.484-0.031-0.836-0.125-1.055-0.281
	c0-0.188,0.086-0.344,0.258-0.469c0.25-0.188,0.367-0.266,0.352-0.234c-0.422,0.203-0.758,0.188-1.008-0.047
	c-0.109-0.094-0.156-0.211-0.141-0.352c0-0.125,0.07-0.25,0.211-0.375c-0.094-0.016-0.391,0.016-0.891,0.094
	c-0.312,0.047-0.578-0.031-0.797-0.234c0.031-0.047,0.07-0.125,0.117-0.234c0.031-0.109,0.062-0.188,0.094-0.234
	c0.094-0.156,0.227-0.18,0.398-0.07c0.016-0.125-0.031-0.234-0.141-0.328c-0.141-0.109-0.219-0.203-0.234-0.281
	c0.047-0.141,0.109-0.211,0.188-0.211c0.062,0,0.156,0.047,0.281,0.141c0-0.141-0.031-0.25-0.094-0.328
	c0.922-0.422,1.414-0.703,1.477-0.844c-0.266,0.172-0.672,0.273-1.219,0.305c-0.594,0.047-1.008,0.125-1.242,0.234
	c0.25-0.016,0.375,0.039,0.375,0.164c-0.078,0.031-0.211,0.039-0.398,0.023c-0.219-0.016-0.344-0.078-0.375-0.188
	c0.141-0.562,0.398-0.742,0.773-0.539c0.047-0.031,0.18-0.211,0.398-0.539c0.156-0.219,0.305-0.32,0.445-0.305
	c-0.031-0.047-0.148-0.07-0.352-0.07c-0.172,0-0.258-0.055-0.258-0.164c0.094-0.312,0.289-0.5,0.586-0.562
	c0.266-0.047,0.555,0.016,0.867,0.188c0.047-0.156,0.219-0.273,0.516-0.352c0.297-0.062,0.461-0.172,0.492-0.328
	c-0.344,0.156-0.703,0.156-1.078,0c-0.438-0.188-0.742-0.266-0.914-0.234c0.047-0.016,0.094,0.016,0.141,0.094
	s0.023,0.125-0.07,0.141c-0.422-0.109-0.703-0.211-0.844-0.305c0.094-0.5,0.375-0.734,0.844-0.703
	c0.688,0.047,1.125,0.023,1.312-0.07c-0.094,0.016-0.164-0.016-0.211-0.094c-0.094-0.172-0.125-0.242-0.094-0.211
	c0.016-0.078,0.07-0.148,0.164-0.211c0.125-0.094,0.195-0.156,0.211-0.188c-0.031-0.047-0.141-0.086-0.328-0.117
	c-0.156-0.031-0.25-0.094-0.281-0.188c0.141-0.25,0.227-0.391,0.258-0.422c0.125-0.141,0.32-0.18,0.586-0.117
	c-0.062,0.109,0.5-0.352,1.688-1.383c-1.312,0.625-2.297,1.219-2.953,1.781c-0.984,0.859-1.586,1.883-1.805,3.07
	C38.383,36.992,38.922,38.758,40.5,39.727z M39.703,41.977c0.234,0.047,0.391,0.008,0.469-0.117
	c-0.078-0.344-0.461-0.234-1.148,0.328c0.016-0.031,0.062-0.094,0.141-0.188c0.047-0.078,0.078-0.148,0.094-0.211
	C39.383,41.867,39.531,41.93,39.703,41.977z M42.234,41.953c0.906-0.031,1.477-0.031,1.711,0c-0.5,0.203-1.266,0.227-2.297,0.07
	c0,0.109-0.133,0.141-0.398,0.094c-0.359-0.047-0.609-0.023-0.75,0.07c-0.094-0.031-0.109-0.094-0.047-0.188
	c0.078-0.125,0.117-0.195,0.117-0.211C40.945,41.914,41.5,41.969,42.234,41.953z M41.789,35.273
	c-0.031-0.125,0.023-0.18,0.164-0.164c0.156,0.016,0.234-0.008,0.234-0.07c-0.125-0.047-0.297-0.047-0.516,0
	c-0.25,0.047-0.414,0.125-0.492,0.234C41.523,35.242,41.727,35.242,41.789,35.273z M43.102,37.102c-0.062-0.297-0.062-0.477,0-0.539
	c-0.375,0.016-0.914,0.227-1.617,0.633C42.266,37.133,42.805,37.102,43.102,37.102z M42,21.609c-0.219,0.469-0.336,0.719-0.352,0.75
	c0.094,0.094,0.141,0.453,0.141,1.078c0.391,0.312,0.602,0.516,0.633,0.609c-0.172,0.016-0.25,0.07-0.234,0.164
	c0.125-0.016,0.242,0.047,0.352,0.188c0.094,0.141,0.203,0.203,0.328,0.188c-0.328-0.703-0.273-1.227,0.164-1.57
	c0.188-0.141,0.727-0.359,1.617-0.656c-0.5-0.031-0.836,0.047-1.008,0.234c-0.031-0.062-0.047-0.141-0.047-0.234
	s-0.031-0.172-0.094-0.234c0,0.016-0.234,0-0.703-0.047c-0.328-0.031-0.531-0.164-0.609-0.398c0.438-0.562,1.055-0.742,1.852-0.539
	c0-0.094-0.078-0.164-0.234-0.211c-0.125-0.047-0.18-0.133-0.164-0.258c0.016-0.203,0.188-0.453,0.516-0.75
	c0.359-0.312,0.57-0.57,0.633-0.773c-0.359,0.125-0.797,0.375-1.312,0.75c-0.594,0.438-0.977,0.695-1.148,0.773
	C42.281,20.938,42.172,21.25,42,21.609z M42.75,38.555c0.453-0.266,0.625-0.492,0.516-0.68c-0.938,0.75-1.398,1.086-1.383,1.008
	C42.023,38.898,42.312,38.789,42.75,38.555z M43.266,31.055c0.125,0.047,0.227,0.07,0.305,0.07c0.094-0.188,0.289-0.273,0.586-0.258
	c0.266,0,0.43-0.094,0.492-0.281c-0.125,0-0.242-0.055-0.352-0.164c-0.141-0.125-0.227-0.203-0.258-0.234
	c-0.078,0.141-0.258,0.289-0.539,0.445c-0.281,0.141-0.461,0.281-0.539,0.422C43.055,31.023,43.156,31.023,43.266,31.055z
	 M43.781,39.188c0.203,0,0.312-0.055,0.328-0.164c-0.141-0.109-0.297-0.148-0.469-0.117c-0.172,0.047-0.297,0.141-0.375,0.281
	C43.25,39.188,43.422,39.188,43.781,39.188z M44.133,32.484c0.266,0.016,0.414-0.078,0.445-0.281c-0.578,0-0.914,0.023-1.008,0.07
	C43.727,32.414,43.914,32.484,44.133,32.484z M44.109,35.109c-0.156,0.531-0.211,0.945-0.164,1.242
	c0.016,0.156,0.148,0.508,0.398,1.055c0.047,0.141,0.109,0.352,0.188,0.633c0.078,0.266,0.141,0.445,0.188,0.539
	c0.359,0.672,1.18,1.023,2.461,1.055c-0.125-0.062,0.031-0.086,0.469-0.07c0.078,0,0.234-0.047,0.469-0.141
	c-0.016,0,0.086-0.031,0.305-0.094c1.922-0.5,3.102-1.062,3.539-1.688c0.094-0.609,0.172-1.75,0.234-3.422
	c0.047-1.531,0.172-2.766,0.375-3.703c-0.156-0.141-0.227-0.359-0.211-0.656c0-0.062,0.008-0.195,0.023-0.398
	c0.031-0.172,0.039-0.312,0.023-0.422c-2.641,0.375-4.742,1.25-6.305,2.625C45.211,32.445,44.547,33.594,44.109,35.109z
	 M44.578,30.117c0.031,0.328,0.203,0.469,0.516,0.422c0.234-0.047,0.469-0.164,0.703-0.352
	C45.562,30.25,45.156,30.227,44.578,30.117z M54.07,28.172c0,0-0.086,0.062-0.258,0.188c0.109,0.047,0.141,0.086,0.094,0.117
	l-0.188,0.117c0.047,0.016,0.164-0.016,0.352-0.094c0.156-0.078,0.273-0.023,0.352,0.164c-0.062,0.078-0.164,0.117-0.305,0.117
	c-0.125,0-0.203,0.039-0.234,0.117c0.031,0.016-0.18-0.094-0.633-0.328c-0.25-0.141-0.398-0.312-0.445-0.516
	c0.047-0.125,0.148-0.219,0.305-0.281c0.156-0.047,0.258-0.133,0.305-0.258c0.156,0.047,0.375,0.094,0.656,0.141
	c0.25,0.031,0.445,0.086,0.586,0.164c-0.016,0.109,0.211,0.031,0.68-0.234c-0.031-0.172-0.195-0.266-0.492-0.281
	c-0.266-0.031-0.461,0.016-0.586,0.141c-0.156-0.016-0.297-0.102-0.422-0.258c-0.016-0.016-0.055-0.078-0.117-0.188
	c-0.062-0.078-0.109-0.141-0.141-0.188c0.219-0.172,0.477-0.297,0.773-0.375c-0.062-0.109-0.062-0.289,0-0.539
	c0.047-0.188-0.008-0.312-0.164-0.375c0.062-0.078,0.289-0.195,0.68-0.352c0.312-0.125,0.445-0.266,0.398-0.422
	c0,0.047-0.078,0.055-0.234,0.023c-0.141-0.031-0.242-0.062-0.305-0.094c-0.016,0.188-0.117,0.289-0.305,0.305
	c-0.141-0.047-0.258-0.188-0.352-0.422c-0.109-0.281-0.195-0.453-0.258-0.516c0.109-0.094,0.156-0.195,0.141-0.305
	s0.039-0.211,0.164-0.305c0.203,0.031,0.398,0,0.586-0.094c0.25-0.125,0.414-0.195,0.492-0.211c-0.547-0.109-0.938-0.133-1.172-0.07
	c-0.016-0.047-0.078-0.109-0.188-0.188c-0.094-0.078-0.156-0.148-0.188-0.211c-0.016-0.062,0.016-0.102,0.094-0.117
	c0.094-0.031,0.141-0.062,0.141-0.094c-0.078-0.062-0.156-0.094-0.234-0.094c-0.094,0-0.172-0.023-0.234-0.07
	c0.062-0.062,0.086-0.219,0.07-0.469c0.203-0.094,0.414-0.062,0.633,0.094c-0.016-0.141,0.008-0.242,0.07-0.305
	c-0.375,0.016-0.578,0.039-0.609,0.07c-0.016-0.109-0.094-0.219-0.234-0.328c-0.141-0.094-0.219-0.188-0.234-0.281
	c0.094,0.031,0.148-0.047,0.164-0.234s0.117-0.242,0.305-0.164c0.016-0.109,0.141-0.312,0.375-0.609
	c-0.031,0-0.109-0.008-0.234-0.023s-0.219-0.031-0.281-0.047c-0.266,0-0.43,0.078-0.492,0.234c-0.031-0.031-0.109-0.062-0.234-0.094
	s-0.195-0.078-0.211-0.141c0-0.078,0.031-0.141,0.094-0.188c0.016-0.016-0.016-0.055-0.094-0.117c0-0.125,0.094-0.211,0.281-0.258
	c0.203-0.047,0.312-0.117,0.328-0.211c-0.406-0.109-1.125-0.344-2.156-0.703c0,0.125,0.07,0.234,0.211,0.328
	c0.141,0.109,0.227,0.211,0.258,0.305c0.047,0,0.094-0.016,0.141-0.047c0.062-0.031,0.117-0.047,0.164-0.047
	c0,0.047,0.023,0.086,0.07,0.117c0.047,0.047,0.078,0.086,0.094,0.117c-0.047,0.312,0.055,0.656,0.305,1.031
	c0.312,0.484,0.492,0.781,0.539,0.891c0.031,0.125,0.047,0.289,0.047,0.492c0,0.25,0.008,0.422,0.023,0.516
	c0.328,2.25,0.406,3.914,0.234,4.992c0,0.031,0.031,0.07,0.094,0.117s0.078,0.109,0.047,0.188c-0.328,0.188-0.531,0.289-0.609,0.305
	c-0.016-0.125-0.07-0.18-0.164-0.164c-4.297,0.734-6.602,1.172-6.914,1.312c0.094,0.078,0.094,0.164,0,0.258
	c-0.125,0.125-0.18,0.219-0.164,0.281c0.062-0.047,0.148-0.062,0.258-0.047c0.078,0.016,0.125,0.008,0.141-0.023
	c0.031,0.109,0.234-0.094,0.609-0.609c0.844,0.172,1.297,0.258,1.359,0.258c0.516,0.062,0.906-0.023,1.172-0.258
	c0.047-0.375,0.359-0.586,0.938-0.633c0.516-0.047,1,0.031,1.453,0.234c0.328-0.172,0.719-0.195,1.172-0.07
	c0.406,0.109,0.711,0.289,0.914,0.539v0.68c0.219-0.109,0.578-0.156,1.078-0.141c0.422,0,0.727-0.078,0.914-0.234
	c-0.078-0.016-0.188-0.031-0.328-0.047s-0.234-0.023-0.281-0.023c-0.156-0.047-0.258-0.18-0.305-0.398
	c0.219,0.031,0.32-0.047,0.305-0.234C54.289,28.281,54.07,28.172,54.07,28.172z M45.961,19.594c0.125,0.047,0.227,0.078,0.305,0.094
	c0.359-0.453,0.539-0.633,0.539-0.539c-0.172,0.094-0.391,0.141-0.656,0.141c-0.203-0.016-0.367,0.062-0.492,0.234
	C45.75,19.523,45.852,19.547,45.961,19.594z M48.023,40.945c-0.156,0-0.219-0.047-0.188-0.141s0.094-0.172,0.188-0.234
	c-0.906-0.031-1.648,0.195-2.227,0.68C47.172,41.094,47.914,40.992,48.023,40.945z M47.648,18.609
	c0.172-0.078,0.273-0.156,0.305-0.234c-0.203-0.047-0.375-0.008-0.516,0.117s-0.148,0.266-0.023,0.422
	C47.414,18.789,47.492,18.688,47.648,18.609z M49.453,42.094c-0.219,0.047-0.336,0-0.352-0.141
	c-0.094,0.031-0.141,0.109-0.141,0.234c0.047,0.016-0.164,0.016-0.633,0c0.141-0.172,0.352-0.258,0.633-0.258
	c0.078-0.016,0.211-0.016,0.398,0c0.219,0.016,0.391,0.023,0.516,0.023C49.766,42.016,49.625,42.062,49.453,42.094z M49.523,28.969
	c0.203,0.016,0.344-0.031,0.422-0.141c-0.062,0-0.25-0.023-0.562-0.07c-0.203-0.031-0.344,0.016-0.422,0.141
	C48.977,28.898,49.164,28.922,49.523,28.969z M53.836,40.477c-0.094-0.047-0.133-0.094-0.117-0.141c0-0.234,0.102-0.414,0.305-0.539
	c0.281-0.188,0.438-0.312,0.469-0.375c-0.172-0.047-0.305-0.188-0.398-0.422c-0.156-0.422-0.227-0.617-0.211-0.586
	c0.188-0.047,0.234-0.172,0.141-0.375c0.094-0.062,0.195-0.102,0.305-0.117c0.094-0.016,0.172-0.055,0.234-0.117
	c-0.297-0.312-0.461-0.719-0.492-1.219c-0.016-0.125-0.023-0.336-0.023-0.633c0-0.266-0.008-0.469-0.023-0.609
	c-0.125,0-0.305-0.156-0.539-0.469c0.125-0.188,0.188-0.297,0.188-0.328c0-0.016-0.062-0.109-0.188-0.281
	c0.156-0.031,0.352-0.156,0.586-0.375c0.25-0.25,0.469-0.406,0.656-0.469c0.016-0.141,0.078-0.312,0.188-0.516
	c0.141-0.234,0.281-0.367,0.422-0.398c-0.094,0-0.211-0.023-0.352-0.07c-0.156-0.047-0.266-0.078-0.328-0.094
	c0.016,0.219-0.078,0.359-0.281,0.422c-0.188,0.078-0.328,0.016-0.422-0.188c0.047-0.188-0.031-0.445-0.234-0.773
	c0.203,0.094,0.305,0.094,0.305,0c-0.297-0.109-0.461-0.336-0.492-0.68s0.086-0.602,0.352-0.773c-0.047,0-0.117-0.016-0.211-0.047
	c-0.078-0.047-0.164-0.055-0.258-0.023c-0.203,3.234-0.305,4.867-0.305,4.898c0-0.031,0.023-0.047,0.07-0.047
	c0.047-0.016,0.078,0,0.094,0.047c-0.328,0.25-0.406,0.922-0.234,2.016c-0.172,0.578-0.586,1.109-1.242,1.594
	c-0.094,0.062-0.383,0.25-0.867,0.562c-0.344,0.219-0.617,0.422-0.82,0.609c0.344,0.109,0.703-0.016,1.078-0.375
	c0.359-0.359,0.742-0.469,1.148-0.328c0.047-0.156,0.148-0.258,0.305-0.305c0.094,0.031,0.133,0.086,0.117,0.164
	c0,0.078,0.016,0.125,0.047,0.141c0.219,0.047,0.32,0.273,0.305,0.68c0,0.078-0.016,0.273-0.047,0.586
	c-0.016,0.266-0.023,0.484-0.023,0.656c0.219,0.109,0.57,0.188,1.055,0.234s0.82,0.125,1.008,0.234
	c0.172-0.109,0.617-0.156,1.336-0.141c0.641,0.016,1.047-0.117,1.219-0.398c-0.125,0.031-0.258,0.031-0.398,0
	c-0.031,0.156-0.031,0.234,0,0.234c-0.328-0.25-0.875-0.398-1.641-0.445c-0.984-0.062-1.586-0.125-1.805-0.188
	c-0.047-0.062-0.008-0.125,0.117-0.188c0.094-0.031,0.102-0.07,0.023-0.117C53.953,40.5,53.914,40.523,53.836,40.477z
	 M50.883,42.164c-0.172,0.047-0.25,0-0.234-0.141c0.047,0,0.117-0.016,0.211-0.047c0.078-0.047,0.164-0.055,0.258-0.023
	C51.133,42.047,51.055,42.117,50.883,42.164z M54.117,21.305c0.078-0.078,0.156-0.109,0.234-0.094v0.305
	c0.016,0,0.078-0.016,0.188-0.047c0.062-0.016,0.125,0,0.188,0.047c-0.016-0.094,0.078-0.195,0.281-0.305
	c0.156-0.094,0.188-0.195,0.094-0.305c-0.062,0.109-0.258,0.172-0.586,0.188c-0.312,0.016-0.5,0.078-0.562,0.188
	C54.016,21.359,54.07,21.367,54.117,21.305z M55.031,35.273c-0.016,0,0.141-0.156,0.469-0.469c-0.312,0.047-0.773,0.07-1.383,0.07
	C54.148,34.938,54.453,35.07,55.031,35.273z M54.188,31.125c0.031,0,0.086,0.016,0.164,0.047c0.094,0.031,0.156,0.055,0.188,0.07
	c0.172,0.047,0.289,0.031,0.352-0.047C54.391,31.18,54.156,31.156,54.188,31.125z M55.289,26.695
	c0.281,0.078,0.453,0.039,0.516-0.117c-0.062-0.062-0.188-0.094-0.375-0.094c-0.203-0.016-0.312-0.031-0.328-0.047
	c-0.016-0.109,0.023-0.203,0.117-0.281c0.125-0.078,0.195-0.141,0.211-0.188c0.078-0.016,0.297,0.016,0.656,0.094
	c0.266,0.062,0.398,0.008,0.398-0.164c-0.5-0.094-0.875-0.102-1.125-0.023c-0.234,0.078-0.5,0.289-0.797,0.633
	C54.5,26.508,54.742,26.57,55.289,26.695z M55.57,38.578c-0.047-0.109,0.07-0.211,0.352-0.305c0.297-0.094,0.461-0.203,0.492-0.328
	c-0.328-0.109-0.656-0.07-0.984,0.117c-0.141,0.078-0.375,0.273-0.703,0.586C55.211,38.633,55.492,38.609,55.57,38.578z
	 M55.078,36.633c0.156-0.016,0.242-0.062,0.258-0.141c0.031,0,0.07,0.016,0.117,0.047c0.031,0.031,0.07,0.039,0.117,0.023
	c0-0.125-0.094-0.18-0.281-0.164c-0.062,0.016-0.141,0.031-0.234,0.047c-0.094,0.031-0.148,0.047-0.164,0.047
	C54.875,36.586,54.938,36.633,55.078,36.633z M54.961,22.289c0.359,0.281,0.922,0.203,1.688-0.234
	c-0.141-0.344-0.32-0.602-0.539-0.773c-0.016,0.078,0,0.172,0.047,0.281c0.047,0.078,0.055,0.164,0.023,0.258
	C55.305,22.242,54.898,22.398,54.961,22.289z M55.828,30.422c0.281-0.031,0.5-0.156,0.656-0.375
	c-0.625-0.047-1.133,0.156-1.523,0.609C55.164,30.547,55.453,30.469,55.828,30.422z M55.781,29.039
	c0.266-0.078,0.453-0.227,0.562-0.445c-0.391-0.094-0.68-0.125-0.867-0.094c-0.25,0.047-0.398,0.227-0.445,0.539
	C55.281,29.117,55.531,29.117,55.781,29.039z M55.852,33.938c0.156-0.047,0.32-0.062,0.492-0.047
	c0.016-0.141-0.023-0.227-0.117-0.258c-0.156-0.062-0.219-0.078-0.188-0.047c0.031-0.109,0.109-0.164,0.234-0.164
	c0.047,0.016,0.117,0.078,0.211,0.188c0.062,0.078,0.141,0.117,0.234,0.117c0.031-0.078,0.016-0.133-0.047-0.164
	c-0.062-0.047-0.094-0.094-0.094-0.141c0.141-0.016,0.297-0.07,0.469-0.164c0.219-0.125,0.367-0.195,0.445-0.211
	c-0.344-0.109-0.742-0.047-1.195,0.188c-0.406,0.219-0.727,0.484-0.961,0.797C55.508,34.031,55.68,34,55.852,33.938z M56.812,31.898
	c0-0.156,0.125-0.305,0.375-0.445c0.234-0.125,0.336-0.234,0.305-0.328c-0.125,0.109-0.688,0.258-1.688,0.445
	C55.914,31.586,56.25,31.695,56.812,31.898z M56.391,23.672c0.312,0.062,0.5,0.086,0.562,0.07c-0.094-0.094-0.32-0.188-0.68-0.281
	c-0.391-0.109-0.523-0.016-0.398,0.281C55.984,23.664,56.156,23.641,56.391,23.672z M55.969,18c0.312,0.156,0.773,0.18,1.383,0.07
	c0.047-0.016,0.07,0.008,0.07,0.07c-0.016,0.047,0.008,0.07,0.07,0.07c-0.109,0.078-0.328,0.102-0.656,0.07
	c-0.422-0.031-0.742-0.023-0.961,0.023C55.875,18.305,55.906,18.203,55.969,18z M57.188,24.516v0.609
	c-0.125,0.125-0.336,0.234-0.633,0.328c-0.344,0.125-0.57,0.219-0.68,0.281c0.375-0.047,0.656-0.016,0.844,0.094
	c0.156-0.203,0.289-0.305,0.398-0.305c0.031,0.031,0.258,0.078,0.68,0.141c0.031,0.062,0.031-0.117,0-0.539
	c-0.031-0.062-0.078-0.07-0.141-0.023c-0.047,0.016-0.078,0-0.094-0.047c0.109-0.016,0.148-0.086,0.117-0.211
	c0-0.047-0.016-0.102-0.047-0.164c-0.031-0.078-0.055-0.133-0.07-0.164H57.188z M56.625,34.828c-0.266,0.25-0.414,0.477-0.445,0.68
	c0.172,0.016,0.359,0.031,0.562,0.047c0.266,0.047,0.469,0.078,0.609,0.094c0.031-0.125,0.039-0.305,0.023-0.539
	c0-0.25,0.016-0.453,0.047-0.609C57.188,34.453,56.922,34.562,56.625,34.828z M56.414,37.5c0.172,0.047,0.336,0.047,0.492,0
	c0.188-0.062,0.359-0.094,0.516-0.094c0.094-0.312,0.141-0.5,0.141-0.562c0.031-0.156-0.016-0.297-0.141-0.422
	C57.266,36.844,56.93,37.203,56.414,37.5z M57.164,40.031c-0.016,0,0.117-0.133,0.398-0.398c-0.719,0.375-1.078,0.555-1.078,0.539
	C56.75,40.203,56.977,40.156,57.164,40.031z M57.891,38.648c0.031-0.047,0.055-0.117,0.07-0.211c0.031-0.109,0.008-0.172-0.07-0.188
	c-0.062,0.062-0.203,0.125-0.422,0.188c-0.188,0.062-0.305,0.133-0.352,0.211C57.648,38.648,57.906,38.648,57.891,38.648z
	 M60.516,18.023c0.266,0.094,0.414,0.109,0.445,0.047c-0.078,0.203-0.398,0.258-0.961,0.164c-0.609-0.094-0.984-0.07-1.125,0.07
	c-0.094-0.094-0.195-0.133-0.305-0.117c-0.047,0-0.102,0.016-0.164,0.047c-0.094,0.031-0.164,0.055-0.211,0.07V18.07
	c-0.078,0-0.172,0.047-0.281,0.141c-0.094,0.094-0.211,0.125-0.352,0.094c0.109-0.266,0.328-0.383,0.656-0.352
	c0.094,0,0.234,0.016,0.422,0.047c0.188,0.047,0.32,0.07,0.398,0.07c0.891,0.031,1.352,0.055,1.383,0.07
	C60.297,18,60.328,17.961,60.516,18.023z M59.133,40.547c0.234,0.062,0.383,0.016,0.445-0.141c-0.125-0.141-0.289-0.203-0.492-0.188
	c-0.203,0-0.375,0.062-0.516,0.188C58.602,40.406,58.789,40.453,59.133,40.547z M62.883,18.07c-0.109,0-0.148,0.039-0.117,0.117
	s-0.008,0.141-0.117,0.188c-0.078,0.031-0.211,0.031-0.398,0c-0.219-0.031-0.312-0.109-0.281-0.234
	c-0.016,0.016,0.289-0.031,0.914-0.141V18.07z"/>
<path d="M92.414,18.281c-0.172-0.047-0.562,0.055-1.172,0.305c0.094,0.156,0.031,0.289-0.188,0.398
	c-0.438,0.234-0.641,0.336-0.609,0.305c-0.109,0.094-0.281,0.297-0.516,0.609c-0.156,0.234-0.32,0.375-0.492,0.422
	c0.047,0.078,0.07,0.156,0.07,0.234c-0.141-0.031-0.242,0.031-0.305,0.188s-0.172,0.219-0.328,0.188
	c-0.312,0.562-0.656,1.32-1.031,2.273c-0.469,1.203-0.773,1.961-0.914,2.273c-0.172,0.359-0.5,0.977-0.984,1.852
	c-0.422,0.75-0.719,1.359-0.891,1.828c-0.438,1.109-0.781,1.766-1.031,1.969c0.094,0.016,0.148,0.078,0.164,0.188
	c0,0.109-0.078,0.148-0.234,0.117c0.016-0.156-0.484,1.016-1.5,3.516c-0.016,0.047-0.016,0.117,0,0.211s0.016,0.156,0,0.188
	c0,0.031-0.039,0.047-0.117,0.047c-0.062,0-0.102,0.008-0.117,0.023c-0.109,0.219-0.25,0.586-0.422,1.102
	c-0.188,0.578-0.328,0.969-0.422,1.172c-0.016,0.016-0.039,0.016-0.07,0c-0.016-0.031-0.023-0.055-0.023-0.07
	c-0.109,0.266-0.375,0.969-0.797,2.109c-0.312,0.859-0.594,1.539-0.844,2.039c1.031-0.031,1.688,0.023,1.969,0.164
	c0.016,0.078,0,0.141-0.047,0.188c-0.031,0.078-0.047,0.141-0.047,0.188c-0.203,0.031-0.383,0.016-0.539-0.047
	c-0.172-0.078-0.172-0.164,0-0.258c-0.109-0.031-0.188-0.016-0.234,0.047c-0.016,0.016-0.031,0.047-0.047,0.094
	s-0.023,0.078-0.023,0.094c0.031-0.172-0.211-0.148-0.727,0.07c-0.141-0.031-0.164-0.109-0.07-0.234
	c-0.078-0.016-0.133,0.016-0.164,0.094c-0.047,0.094-0.125,0.117-0.234,0.07c-0.016-0.078,0.008-0.141,0.07-0.188
	s0.094-0.086,0.094-0.117c0.094-0.016-0.062,0.141-0.469,0.469c0.047,0.047,0.125,0.094,0.234,0.141
	c-0.016,0.094-0.055,0.141-0.117,0.141s-0.102-0.047-0.117-0.141c-0.297,0.516-0.734,1.359-1.312,2.531
	c-0.562,1.094-1.016,1.922-1.359,2.484c-0.047,0.016-0.086,0.008-0.117-0.023c-0.047-0.031-0.086-0.047-0.117-0.047
	c0.109,0.125,0.156,0.234,0.141,0.328c0,0.016-0.023,0.07-0.07,0.164c-0.031,0.062-0.055,0.133-0.07,0.211
	c-0.125,0.016-0.281,0.117-0.469,0.304c-0.25,0.25-0.43,0.406-0.539,0.469c-0.062,0.047-0.086,0.125-0.07,0.234
	c-0.203,0.094-0.43,0.219-0.68,0.375c-0.281,0.172-0.477,0.281-0.586,0.328c-0.109-0.031-0.156-0.109-0.141-0.234
	c-0.031,0.266-0.305,0.383-0.82,0.352c-0.578-0.031-0.938,0.039-1.078,0.211c-0.047-0.031-0.266-0.055-0.656-0.07
	c-0.25,0-0.422-0.133-0.516-0.398c-0.375,0.078-0.727-0.117-1.055-0.586c0.016,0.016-0.203-0.391-0.656-1.218h0.305
	c-0.016-0.078-0.086-0.141-0.211-0.188c-0.141-0.047-0.227-0.094-0.258-0.141c0.031-0.109,0.039-0.547,0.023-1.312
	c-0.016-0.562,0.078-0.93,0.281-1.102c0.016,0.125-0.086,0.125-0.305,0c0.062-0.062,0.078-0.141,0.047-0.234
	c-0.047-0.125-0.062-0.227-0.047-0.305c0.078-0.062,0.156-0.094,0.234-0.094c-0.141,0.062-0.211-0.031-0.211-0.281
	c-0.016-0.25,0.055-0.391,0.211-0.422c-0.109-0.281-0.039-0.562,0.211-0.844c0.078-0.078,0.203-0.203,0.375-0.375
	c0.172-0.141,0.289-0.258,0.352-0.352c-0.062-0.031-0.242-0.062-0.539-0.094C69.234,42.164,69.078,42.094,69,42
	c-0.031,0-0.062,0.078-0.094,0.234c-0.047-0.062-0.164-0.109-0.352-0.141s-0.305-0.086-0.352-0.164
	c-0.094,0.141-0.297,0.242-0.609,0.305c0.016-0.109-0.047-0.18-0.188-0.211c-0.156-0.016-0.227-0.078-0.211-0.188
	c0.062-0.062,0.125-0.086,0.188-0.07c0.062,0.031,0.078,0.109,0.047,0.234c0.188-0.188,0.445-0.25,0.773-0.188
	c0.391,0.062,0.68,0.047,0.867-0.047c0.047-0.094,0.18,0.039,0.398,0.398c0.297-0.469,0.453-0.625,0.469-0.469
	c0.141,0.016,0.664-0.016,1.57-0.094c0.5-0.031,0.938,0.102,1.312,0.398c0.094,0.078,0.414,0.414,0.961,1.008
	c-0.062,0.766-0.039,1.484,0.07,2.156c0.156,0.875,0.445,1.414,0.867,1.617c0.078-0.031,0.117-0.102,0.117-0.211
	s0.039-0.195,0.117-0.258c0.5,0.062,0.703-0.016,0.609-0.234c0.062-0.016,0.109,0,0.141,0.047c0.031,0.062,0.062,0.094,0.094,0.094
	c0.25-0.141,0.492-0.422,0.727-0.844c0.281-0.5,0.484-0.82,0.609-0.961c-0.016-0.016-0.062-0.023-0.141-0.023
	s-0.133-0.039-0.164-0.117c0.234-0.172,0.469-0.516,0.703-1.031c0.234-0.562,0.445-0.922,0.633-1.078
	c-0.062-0.016-0.203,0.023-0.422,0.117c-0.125,0.047-0.195-0.023-0.211-0.211c-0.125,0.078-0.297,0.125-0.516,0.141
	s-0.391,0.047-0.516,0.094c0.062-0.062,0.094-0.164,0.094-0.305c-0.062,0-0.141,0.07-0.234,0.211
	c-0.062,0.109-0.172,0.141-0.328,0.094c-0.016-0.172,0.094-0.25,0.328-0.234c-0.094-0.062-0.25-0.039-0.469,0.07
	c-0.234,0.125-0.445,0.156-0.633,0.094c0.047-0.047,0.125-0.203,0.234-0.469c0.328,0.047,0.789,0.062,1.383,0.047
	c0.484,0,0.883,0.039,1.195,0.117c0.047-0.047,0.117-0.125,0.211-0.234c0.078-0.109,0.141-0.188,0.188-0.234
	c-0.203-0.016-0.391-0.07-0.562-0.164c-0.25-0.109-0.32-0.266-0.211-0.469c0.062,0.062-0.336-0.719-1.195-2.344
	c-0.203-0.422-0.695-1.383-1.477-2.883c-0.625-1.203-1.094-2.125-1.406-2.766c-0.109-0.047-0.203-0.172-0.281-0.375
	c-0.078-0.219-0.172-0.352-0.281-0.398c0.047-0.109,0.125-0.164,0.234-0.164c0.016-0.078-0.047-0.102-0.188-0.07
	c-0.141,0.016-0.203-0.016-0.188-0.094c-0.047-0.172,0.031-0.195,0.234-0.07c0-0.031-0.016-0.086-0.047-0.164
	c-0.016-0.031,0-0.055,0.047-0.07c-0.031-0.078-0.07-0.078-0.117,0c-0.062,0.094-0.133,0.117-0.211,0.07
	c0-0.094-0.047-0.195-0.141-0.305c-0.109-0.109-0.164-0.211-0.164-0.305c0.141,0.078,0.211,0.023,0.211-0.164
	c-0.016-0.219,0.094-0.297,0.328-0.234c0.016-0.141-0.055-0.32-0.211-0.539c-0.141-0.188-0.172-0.352-0.094-0.492h-0.305
	c-0.078-0.219-0.227-0.562-0.445-1.031c-0.203-0.453-0.344-0.812-0.422-1.078c0.062-0.062,0.164-0.086,0.305-0.07
	c-0.031-0.094-0.094-0.117-0.188-0.07c-0.125,0.062-0.219,0.086-0.281,0.07c0.094-0.141,0.07-0.312-0.07-0.516
	c-0.109-0.172-0.109-0.289,0-0.352c0-0.047-0.047-0.078-0.141-0.094c-0.094,0-0.148-0.023-0.164-0.07
	c-0.016-0.062,0.031-0.219,0.141-0.469c-0.016-0.078-0.039-0.078-0.07,0l-0.07,0.164c0.031,0.078-0.039-0.031-0.211-0.328
	c-0.078-0.125-0.062-0.227,0.047-0.305c-0.156-0.203-0.336-0.383-0.539-0.539c-0.031-0.078-0.016-0.141,0.047-0.188
	s0.094-0.086,0.094-0.117c-0.281-0.031-0.547-0.32-0.797-0.867c-0.25-0.531-0.32-0.898-0.211-1.102
	c-0.203-0.031-0.391-0.156-0.562-0.375c-0.172-0.25-0.141-0.414,0.094-0.492c0.016,0.125-0.094,0.125-0.328,0
	c-0.016-0.094,0.016-0.18,0.094-0.258c0.094-0.062,0.117-0.156,0.07-0.281c-0.141,0.141-0.273,0.195-0.398,0.164
	c-0.031-0.344-0.211-0.656-0.539-0.938c0-0.047,0.039-0.078,0.117-0.094c0.078,0,0.117-0.023,0.117-0.07
	c0.031,0.125-0.07,0.125-0.305,0c0.062-0.266-0.047-0.367-0.328-0.305c-0.016-0.172,0.062-0.258,0.234-0.258
	c0.031,0.109-0.094,0.109-0.375,0c0.031-0.172-0.078-0.273-0.328-0.305c-0.016-0.094,0.039-0.148,0.164-0.164
	c-0.281,0.094-0.641,0.07-1.078-0.07c-0.547-0.156-0.969-0.234-1.266-0.234c0.016-0.203,0.25-0.383,0.703-0.539
	c-0.078-0.109-0.211-0.141-0.398-0.094c-0.203,0.062-0.359,0.062-0.469,0v-0.234c0.078,0.031,0.281,0.039,0.609,0.023
	c0.219-0.016,0.352,0.055,0.398,0.211c0.062,0,0.094-0.047,0.094-0.141c0.016-0.094,0.039-0.148,0.07-0.164
	c0.672,0.156,1.453,0.156,2.344,0c0.016,0.016,0.039,0.062,0.07,0.141c0.016,0.062,0.047,0.094,0.094,0.094
	c-0.016,0.109-0.07,0.148-0.164,0.117c-0.016,0-0.055-0.016-0.117-0.047c-0.047-0.031-0.086-0.055-0.117-0.07
	c0.047,0.141,0.18,0.211,0.398,0.211c0.266,0,0.445,0.031,0.539,0.094c0.094-0.047,0.148-0.094,0.164-0.141
	c-0.031-0.062-0.172-0.094-0.422-0.094c-0.219,0.016-0.312-0.062-0.281-0.234c0.047,0,0.203,0.008,0.469,0.023
	c0.203,0.016,0.383-0.016,0.539-0.094c-0.016,0.141,0.016,0.219,0.094,0.234c0.078,0,0.156-0.023,0.234-0.07
	c0.094,0.031,0.117,0.086,0.07,0.164c0.031-0.062-0.023-0.016-0.164,0.141c0,0.031,0.094,0.039,0.281,0.023
	c0.203-0.016,0.32-0.047,0.352-0.094c0.031,0.094-0.102,0.094-0.398,0v-0.398c0.109-0.031,0.18-0.008,0.211,0.07
	c0.031,0.109,0.07,0.164,0.117,0.164c0.375-0.125,1.008-0.172,1.898-0.141c0.875,0.031,1.469,0,1.781-0.094
	c0.281,0.125,1.031,0.148,2.25,0.07c1.188-0.094,1.922-0.062,2.203,0.094c0.203-0.109,0.414-0.164,0.633-0.164
	c0.281-0.016,0.461,0.062,0.539,0.234c-0.016-0.156,0.094-0.234,0.328-0.234s0.391,0.078,0.469,0.234
	c0.703-0.188,1.703-0.258,3-0.211c1.453,0.062,2.25,0.078,2.391,0.047c0.047-0.109,0.094-0.117,0.141-0.023s0.055,0.18,0.023,0.258
	c0.203-0.109,0.438-0.18,0.703-0.211c0.328-0.031,0.539-0.062,0.633-0.094c0.031,0,0.055,0.078,0.07,0.234
	c0.047-0.125,0.141-0.148,0.281-0.07c0.125,0.062,0.188,0.008,0.188-0.164l0.164,0.07c0.078,0.031,0.102,0.086,0.07,0.164
	c0.094-0.156,0.258-0.234,0.492-0.234c0.203,0,0.383,0.055,0.539,0.164c0.203-0.109,0.523-0.148,0.961-0.117
	c0.578,0.031,0.93,0.039,1.055,0.023c0.016-0.078-0.008-0.125-0.07-0.141c0.016-0.109,0.055-0.133,0.117-0.07
	c0.078,0.062,0.094,0.133,0.047,0.211c0.188-0.125,0.266-0.094,0.234,0.094c0.094-0.125,0.273-0.172,0.539-0.141
	c0.281,0.031,0.469,0.023,0.562-0.023V18.281z M65.344,41.906c0.109,0.016,0.18-0.055,0.211-0.211
	c-0.047-0.016,0.039,0.047,0.258,0.188c0.125,0.078,0.195,0.039,0.211-0.117c0.047-0.016,0.109,0,0.188,0.047
	c0.047,0.047,0.109,0.055,0.188,0.023c-0.047,0.125-0.211,0.219-0.492,0.281s-0.453,0.156-0.516,0.281
	c-0.047-0.016-0.07-0.102-0.07-0.258c0-0.125-0.055-0.172-0.164-0.141C65.172,41.938,65.234,41.906,65.344,41.906z M66.75,42.07
	c-0.188,0-0.273-0.078-0.258-0.234c0.078-0.062,0.164-0.062,0.258,0s0.188,0.062,0.281,0C67.031,41.977,66.938,42.055,66.75,42.07z
	 M72.281,23.602c-0.047-0.094,0.008-0.281,0.164-0.562c-0.156,0.031-0.289,0.008-0.398-0.07c-0.016,0.156-0.039,0.234-0.07,0.234
	c-0.312-0.078-0.5-0.273-0.562-0.586c-0.078-0.297-0.023-0.57,0.164-0.82c-0.094-0.094-0.227-0.062-0.398,0.094
	c-0.156,0.141-0.281,0.164-0.375,0.07c0-0.047,0.023-0.078,0.07-0.094s0.07-0.039,0.07-0.07c-0.047-0.016-0.156-0.031-0.328-0.047
	c-0.094,0-0.164-0.062-0.211-0.188c0.062-0.234,0.398-0.781,1.008-1.641c-0.344-0.016-0.602,0.008-0.773,0.07
	c0,0.141-0.086,0.32-0.258,0.539c-0.141,0.188-0.156,0.375-0.047,0.562c-0.078,0-0.156,0.023-0.234,0.07
	c0.031-0.125,0-0.211-0.094-0.258c-0.141-0.078-0.219-0.117-0.234-0.117c-0.031-0.297,0.078-0.484,0.328-0.562
	c-0.062-0.141-0.062-0.289,0-0.445c0.094-0.234,0.141-0.422,0.141-0.562c-0.281,0.156-0.773,0.18-1.477,0.07
	c0.016,0.031,0.055,0.102,0.117,0.211c0.062,0.094,0.109,0.164,0.141,0.211c0.062,0.156,0,0.281-0.188,0.375
	c0.016,0,0.055-0.008,0.117-0.023c0.062,0,0.102,0.008,0.117,0.023c0.375,0.484,0.688,1.234,0.938,2.25
	c0.078,0.062,0.547,0.875,1.406,2.438h0.398c-0.031-0.172-0.031-0.25,0-0.234c0,0.047-0.039,0.07-0.117,0.07
	c-0.062,0-0.102-0.023-0.117-0.07C72.172,23.898,72.406,23.586,72.281,23.602z M69.609,47.156c0.062-0.141,0.125-0.141,0.188,0
	c0.094,0.172,0.195,0.203,0.305,0.094c0.672,0.828,1.398,1.429,2.18,1.804V48.89c0.062,0,0.086-0.023,0.07-0.07
	c-0.328,0.016-0.453-0.125-0.375-0.422c0.078-0.265,0.203-0.445,0.375-0.539c0.016-0.062-0.008-0.141-0.07-0.234
	c-0.062-0.078-0.086-0.156-0.07-0.234c0.125-0.047,0.195-0.141,0.211-0.281c0-0.172,0.031-0.281,0.094-0.328
	c-0.047-0.062-0.109-0.062-0.188,0c-0.062,0.078-0.133,0.078-0.211,0c0,0.047,0.016,0.102,0.047,0.164
	c0.031,0.047,0.047,0.094,0.047,0.141c-0.016,0-0.125,0.039-0.328,0.117c-0.094,0.031-0.172-0.008-0.234-0.117
	c0-0.031,0.016-0.055,0.047-0.07c0.016-0.031,0.031-0.062,0.047-0.094c-0.047,0.016-0.094,0.031-0.141,0.047
	c-0.031,0.016-0.055,0.016-0.07,0c-0.031,0-0.039-0.062-0.023-0.188c-0.078-0.016-0.156-0.008-0.234,0.023
	c-0.078,0.047-0.156,0.062-0.234,0.047c0.031-0.094,0-0.141-0.094-0.141c-0.109,0-0.156-0.031-0.141-0.094
	c0-0.031,0.047-0.07,0.141-0.117c0.078-0.031,0.109-0.094,0.094-0.188c-0.234-0.172-0.367-0.25-0.398-0.234
	c0.016-0.109-0.039,0.047-0.164,0.469c-0.141-0.062-0.227-0.102-0.258-0.117c-0.047-0.062-0.039-0.156,0.023-0.281
	c-0.094-0.031-0.141,0.008-0.141,0.117c-0.016,0.109-0.07,0.148-0.164,0.117c0.078-0.125,0.086-0.227,0.023-0.305
	c-0.016-0.016-0.102-0.07-0.258-0.164c0.062-0.219,0.273-0.492,0.633-0.82c0.328-0.312,0.508-0.562,0.539-0.75
	c-0.203-0.016-0.383,0.047-0.539,0.188c-0.047,0.047-0.109,0.117-0.188,0.211c-0.094,0.109-0.164,0.188-0.211,0.234
	c0.031-0.094,0.008-0.18-0.07-0.258c-0.109-0.078-0.164-0.203-0.164-0.375C69.625,46.172,69.594,47.109,69.609,47.156z
	 M70.383,48.632c-0.094-0.094-0.148-0.156-0.164-0.188c-0.141-0.141-0.18-0.281-0.117-0.421c-0.125,0.047-0.211,0.023-0.258-0.07
	c-0.047-0.109-0.094-0.164-0.141-0.164c0.016,0.266,0.117,0.507,0.305,0.726s0.375,0.32,0.562,0.305
	C70.523,48.773,70.461,48.71,70.383,48.632z M70.641,41.836c-0.438-0.016-0.672,0.062-0.703,0.234
	C70.438,41.852,70.672,41.773,70.641,41.836z M71.039,45.516c0.047,0.125,0.016,0.203-0.094,0.234
	c-0.125,0.016-0.172,0.07-0.141,0.164c0.094-0.016,0.219-0.016,0.375,0c0.156,0,0.273,0,0.352,0c0.25-0.016,0.445-0.117,0.586-0.305
	c-0.141,0.016-0.266-0.047-0.375-0.188s-0.219-0.211-0.328-0.211c0,0.047,0.016,0.102,0.047,0.164
	c0.031,0.047,0.047,0.094,0.047,0.141H71.039z M70.805,18.516c0.328,0.047,0.531-0.008,0.609-0.164c-0.031,0-0.07-0.031-0.117-0.094
	s-0.109-0.086-0.188-0.07c-0.016,0.156-0.039,0.234-0.07,0.234C70.883,18.453,70.805,18.484,70.805,18.516z M73.758,29.086
	c0,0,0.031,0.281,0.094,0.844c0.172,0.141,0.359,0.508,0.562,1.102c0.188,0.531,0.391,0.82,0.609,0.867
	c0,0.078,0.289-0.234,0.867-0.938c-0.109-0.047-0.266-0.078-0.469-0.094c-0.172,0-0.305-0.047-0.398-0.141
	c0-0.031,0.031-0.062,0.094-0.094s0.086-0.078,0.07-0.141c-0.172,0-0.328-0.133-0.469-0.398c0.188-0.219,0.234-0.398,0.141-0.539
	c0.062-0.047,0.148-0.109,0.258-0.188c0.094-0.109,0.164-0.18,0.211-0.211c-0.125-0.047-0.242-0.039-0.352,0.023
	c-0.125,0.062-0.266,0.078-0.422,0.047l-0.398-0.703c0.234-0.484,0.422-0.766,0.562-0.844c-0.078-0.078-0.297-0.102-0.656-0.07
	c-0.312,0.016-0.484-0.039-0.516-0.164c0-0.047,0.102-0.078,0.305-0.094c0.047-0.109,0.008-0.156-0.117-0.141
	c-0.141,0-0.203-0.031-0.188-0.094c0.094-0.016,0.195-0.172,0.305-0.469c0.328-0.031,0.562-0.164,0.703-0.398
	c-0.516-0.219-0.852-0.109-1.008,0.328c-0.062-0.047-0.164-0.109-0.305-0.188c-0.156-0.094-0.266-0.156-0.328-0.188
	c-0.266-0.172-0.344-0.312-0.234-0.422c-0.125-0.047-0.195-0.023-0.211,0.07c-0.047,0.109-0.086,0.164-0.117,0.164
	c0-0.047-0.039-0.078-0.117-0.094c-0.078-0.031-0.117-0.078-0.117-0.141s0.039-0.102,0.117-0.117
	c0.078-0.031,0.117-0.07,0.117-0.117c-0.406-0.203-0.562-0.383-0.469-0.539c-0.141,0-0.242-0.023-0.305-0.07
	c0.109,0.344,0.383,0.953,0.82,1.828c0.375,0.734,0.625,1.375,0.75,1.922C73.555,28.953,73.758,29.086,73.758,29.086z
	 M72.234,20.695c-0.047,0.016-0.086,0.016-0.117,0c-0.078,0-0.102-0.047-0.07-0.141c0.422-0.094,0.633-0.25,0.633-0.469
	c-0.234-0.047-0.43,0.008-0.586,0.164c-0.141,0.156-0.18,0.305-0.117,0.445c0.031,0.047,0.094,0.078,0.188,0.094
	c0.125,0.016,0.188-0.016,0.188-0.094C72.336,20.695,72.297,20.695,72.234,20.695z M72.469,24.914
	c0.172,0.078,0.188,0.164,0.047,0.258c0.094-0.047,0.289-0.055,0.586-0.023c0.234,0.031,0.406-0.016,0.516-0.141
	c-0.078-0.047-0.062-0.102,0.047-0.164c0.141-0.078,0.203-0.156,0.188-0.234c0.094,0-0.094,0.039-0.562,0.117
	c-0.203,0.031-0.359-0.008-0.469-0.117c-0.047,0.016-0.055,0.047-0.023,0.094c0.031,0.062,0.039,0.109,0.023,0.141
	c-0.344,0.047-0.422-0.031-0.234-0.234c-0.094,0-0.203,0.047-0.328,0.141c-0.109,0.078-0.125,0.141-0.047,0.188
	C72.211,24.859,72.297,24.852,72.469,24.914z M73.266,22.031c-0.188,0.016-0.281-0.008-0.281-0.07
	c0.062-0.125,0.219-0.18,0.469-0.164v-0.234c-0.062-0.047-0.211-0.016-0.445,0.094c-0.219,0.109-0.359,0.102-0.422-0.023
	c0,0.125-0.062,0.234-0.188,0.328s-0.188,0.195-0.188,0.305c0.125-0.016,0.164,0.047,0.117,0.188
	c-0.078,0.156-0.07,0.25,0.023,0.281c0.047-0.031,0.078-0.117,0.094-0.258s0.062-0.211,0.141-0.211
	c0.094,0.109,0.258,0.133,0.492,0.07c0.203-0.047,0.305-0.125,0.305-0.234c0,0.062,0.023,0.094,0.07,0.094
	C73.5,22.07,73.438,22.016,73.266,22.031z M72.938,48.984c-0.281-0.016-0.477-0.047-0.586-0.094v0.164
	c-0.062,0-0.086,0.023-0.07,0.07c0.609,0.047,0.977,0.07,1.102,0.07c-0.031-0.062,0.078-0.141,0.328-0.234
	c0.266-0.109,0.414-0.211,0.445-0.305c-0.391,0.125-0.703,0.18-0.938,0.164C73.328,48.929,73.234,48.984,72.938,48.984z
	 M72.914,46.922c0.141-0.156,0.109-0.234-0.094-0.234c0.047,0.109,0.023,0.164-0.07,0.164c-0.109,0-0.164,0.023-0.164,0.07
	C72.68,47.078,72.789,47.078,72.914,46.922z M73.359,42.047c0.188,0,0.297-0.016,0.328-0.047c-0.062-0.094-0.18-0.109-0.352-0.047
	c-0.203,0.062-0.344,0.078-0.422,0.047c-0.047-0.109-0.125-0.188-0.234-0.234c0.281-0.078,0.727-0.086,1.336-0.023
	c0.625,0.062,1.062,0.07,1.312,0.023c0,0.156-0.086,0.258-0.258,0.305c-0.156,0.031-0.227,0.109-0.211,0.234
	c-0.219,0.141-0.32,0.141-0.305,0c-0.109-0.016-0.148-0.055-0.117-0.117c0.031-0.125,0.047-0.211,0.047-0.258
	c-1.016,0.156-1.461,0.258-1.336,0.305C73.133,42.125,73.203,42.062,73.359,42.047z M73.289,23.531
	c-0.062-0.078-0.141-0.086-0.234-0.023c-0.141,0.109-0.219,0.164-0.234,0.164c0.047,0,0.078,0.039,0.094,0.117
	s0.039,0.117,0.07,0.117c0.047-0.109,0.195-0.164,0.445-0.164c0.234,0,0.375,0.055,0.422,0.164c0.078-0.109,0.195-0.18,0.352-0.211
	c0.203-0.047,0.344-0.102,0.422-0.164c-0.016-0.125,0-0.242,0.047-0.352c0.078-0.125,0.117-0.219,0.117-0.281
	c-0.109,0-0.328,0.039-0.656,0.117c-0.266,0.062-0.516,0.07-0.75,0.023C73.32,23.117,73.289,23.281,73.289,23.531z M73.266,45.844
	c0.078-0.109,0.062-0.188-0.047-0.234c-0.156,0.219-0.234,0.344-0.234,0.375C73.094,46.016,73.188,45.969,73.266,45.844z
	 M73.734,20.672c0.359,0.078,0.5,0.117,0.422,0.117c-0.016-0.109,0.023-0.195,0.117-0.258c0.078-0.078,0.117-0.148,0.117-0.211
	c-0.062-0.016-0.148-0.062-0.258-0.141c-0.094-0.078-0.188-0.109-0.281-0.094c-0.219,0.594-0.375,0.828-0.469,0.703
	C73.445,20.664,73.562,20.625,73.734,20.672z M74.227,19.383c0.125,0.078,0.234,0.125,0.328,0.141
	c0.031-0.047,0.141-0.133,0.328-0.258c0.156-0.094,0.227-0.219,0.211-0.375c-0.75,0.188-1.141,0.297-1.172,0.328
	C74,19.234,74.102,19.289,74.227,19.383z M74.555,22.102c-0.016-0.156,0.008-0.281,0.07-0.375c-0.141-0.031-0.219-0.062-0.234-0.094
	c0.062,0,0.094-0.023,0.094-0.07c-0.109,0-0.242,0.102-0.398,0.305C74.352,21.992,74.508,22.07,74.555,22.102z M74.086,48.585
	c0.062,0.062,0.148,0.086,0.258,0.07c0.109-0.031,0.156-0.109,0.141-0.234C74.281,48.406,74.148,48.46,74.086,48.585z
	 M75.023,25.078c-0.047,0-0.07-0.023-0.07-0.07c0.047-0.203,0.227-0.336,0.539-0.398v-0.305c0.016,0-0.086,0.047-0.305,0.141
	c-0.125,0.047-0.234,0.023-0.328-0.07c-0.047,0.125-0.156,0.289-0.328,0.492c-0.156,0.203-0.25,0.383-0.281,0.539
	c0.219-0.031,0.375-0.008,0.469,0.07c-0.078-0.234-0.016-0.352,0.188-0.352c0.172,0,0.234-0.039,0.188-0.117
	C75.094,25.055,75.07,25.078,75.023,25.078z M74.789,48.117c0.078,0.078,0.164,0.086,0.258,0.023s0.141-0.156,0.141-0.281h-0.398
	c0.031,0.062,0.016,0.148-0.047,0.258c-0.047,0.078-0.031,0.125,0.047,0.14V48.117z M75.375,33.07
	c0.125,0.281,0.141,0.461,0.047,0.539c0.078-0.016,0.133,0.008,0.164,0.07c0.047,0.062,0.094,0.094,0.141,0.094
	c-0.016-0.266,0.07-0.523,0.258-0.773c0.219-0.281,0.344-0.492,0.375-0.633c-0.094-0.078-0.25-0.102-0.469-0.07
	c0,0.203-0.156,0.328-0.469,0.375c0-0.016,0.039-0.07,0.117-0.164c0.062-0.062,0.047-0.109-0.047-0.141
	c-0.031,0.078-0.102,0.125-0.211,0.141c-0.109,0.031-0.195,0.008-0.258-0.07c0.141,0.219,0.117,0.297-0.07,0.234
	C75.109,32.656,75.25,32.789,75.375,33.07z M75.727,26.414c-0.047,0-0.094-0.031-0.141-0.094c-0.031-0.062-0.086-0.086-0.164-0.07
	c-0.016,0.047-0.047,0.102-0.094,0.164c-0.031,0.062-0.055,0.117-0.07,0.164C75.508,26.594,75.664,26.539,75.727,26.414z
	 M76.078,28.312c0.078-0.062,0.219-0.227,0.422-0.492c-0.234-0.094-0.492-0.078-0.773,0.047s-0.414,0.266-0.398,0.422
	c0.062-0.141,0.102-0.172,0.117-0.094c0.047,0.125,0.062,0.188,0.047,0.188C75.695,28.477,75.891,28.453,76.078,28.312z
	 M83.016,18.375c0,0-0.133-0.031-0.398-0.094s-0.445-0.039-0.539,0.07c0-0.125-0.055-0.203-0.164-0.234
	c-0.016,0.172-0.07,0.25-0.164,0.234c-0.047,0-0.078-0.047-0.094-0.141c-0.031-0.078-0.078-0.109-0.141-0.094
	c-0.25,0.203-0.812,0.258-1.688,0.164c-0.812-0.109-1.32-0.008-1.523,0.305c-0.719,0.141-1.32,0.242-1.805,0.305l-0.234,0.328
	c-0.016-0.078-0.062-0.094-0.141-0.047c-0.094,0.062-0.172,0.078-0.234,0.047c-0.844,1.344-0.719,2.906,0.375,4.688
	c0.266,0.047,0.445,0.172,0.539,0.375c0.078,0.203,0.055,0.422-0.07,0.656c0.266,0.531,1.008,2.102,2.227,4.711
	c0.891,1.938,1.664,3.469,2.32,4.594c0.234-1.031,0.891-2.516,1.969-4.453c0-0.781,0.18-1.203,0.539-1.266
	c0.062-0.406,0.234-0.938,0.516-1.594c0.266-0.609,0.406-1.07,0.422-1.383c0.25,0.016,0.383-0.031,0.398-0.141
	c-0.172-0.016-0.25-0.07-0.234-0.164c0.156-0.172,0.32-0.555,0.492-1.148c0.141-0.531,0.367-0.906,0.68-1.125
	c0.031-0.125,0.008-0.164-0.07-0.117c-0.094,0.062-0.148,0.047-0.164-0.047c0.094,0,0.188-0.195,0.281-0.586
	c0.078-0.328,0.219-0.414,0.422-0.258c0.016-0.078-0.008-0.148-0.07-0.211c-0.078-0.047-0.109-0.109-0.094-0.188
	c0.109-0.031,0.18-0.078,0.211-0.141c0.016-0.078,0.055-0.133,0.117-0.164c-0.141-0.062-0.18-0.211-0.117-0.445l0.117-0.422
	c-0.234-0.047-0.836-0.359-1.805-0.938c-0.922-0.031-1.445-0.188-1.57-0.469c0.328-0.453,0.383-0.766,0.164-0.938
	c0,0.188-0.047,0.227-0.141,0.117c-0.141-0.156-0.25-0.227-0.328-0.211c-0.047,0.109-0.023,0.164,0.07,0.164
	c0.109,0,0.164,0.023,0.164,0.07C83.094,18.312,83.016,18.375,83.016,18.375z M76.078,29.578c0.328-0.125,0.523-0.242,0.586-0.352
	c-0.406,0.125-0.648,0.203-0.727,0.234c-0.297,0.141-0.422,0.328-0.375,0.562C75.625,29.836,75.797,29.688,76.078,29.578z
	 M76.898,36c0,0-0.062-0.031-0.188-0.094c-0.109-0.047-0.18-0.156-0.211-0.328c0-0.25,0.117-0.508,0.352-0.773
	c0.234-0.297,0.359-0.484,0.375-0.562c-0.078,0.109-0.156,0.117-0.234,0.023c-0.031-0.031-0.062-0.078-0.094-0.141
	c-0.047-0.062-0.07-0.102-0.07-0.117c-0.141,0.094-0.352,0.086-0.633-0.023c-0.266-0.094-0.445-0.109-0.539-0.047
	c0.25,0.594,0.586,1.344,1.008,2.25c0.484,1.031,0.828,1.766,1.031,2.203c0.891-1.016,1.438-1.664,1.641-1.945
	c-0.219-0.016-0.422-0.008-0.609,0.023c-0.234,0.047-0.32,0.117-0.258,0.211c0.016-0.062,0.07-0.094,0.164-0.094v0.328
	c-0.078,0-0.164,0.031-0.258,0.094s-0.195,0.078-0.305,0.047c-0.031-0.172-0.133-0.297-0.305-0.375
	c0.031-0.156,0.148-0.383,0.352-0.68c0.172-0.266,0.266-0.508,0.281-0.727c-0.109,0.016-0.336,0.172-0.68,0.469
	c-0.312,0.25-0.586,0.352-0.82,0.305c0-0.016,0.039-0.078,0.117-0.188c0.047-0.078,0.031-0.117-0.047-0.117
	C76.922,35.914,76.898,36,76.898,36z M76.992,31.57c0.188-0.094,0.344-0.117,0.469-0.07c-0.031-0.312-0.203-0.406-0.516-0.281
	c-0.234,0.094-0.43,0.242-0.586,0.445C76.562,31.711,76.773,31.68,76.992,31.57z M77.227,29.625
	c-0.062,0.047-0.211,0.102-0.445,0.164c-0.203,0.047-0.32,0.125-0.352,0.234C76.867,29.977,77.133,29.844,77.227,29.625z
	 M78.703,32.508c0.234-0.062,0.258-0.086,0.07-0.07c-0.5,0.078-0.812,0.078-0.938,0c-0.078,0.078-0.25,0.203-0.516,0.375
	c-0.234,0.141-0.398,0.281-0.492,0.422c0.094,0,0.25-0.055,0.469-0.164c0.297-0.156,0.508-0.258,0.633-0.305
	C78.008,32.734,78.266,32.648,78.703,32.508z M77.367,28.219c-0.312,0.016-0.469,0.117-0.469,0.305
	C77.211,28.508,77.367,28.406,77.367,28.219z M77.461,31.031c0.125,0,0.172,0.055,0.141,0.164c0.109,0,0.211-0.062,0.305-0.188
	c0.078-0.109,0.188-0.148,0.328-0.117c-0.016-0.172-0.07-0.281-0.164-0.328c-0.062,0.172-0.172,0.242-0.328,0.211
	c-0.125-0.031-0.25-0.102-0.375-0.211c0.047,0.125,0.016,0.219-0.094,0.281c-0.094,0.047-0.141,0.109-0.141,0.188
	C77.133,31.031,77.242,31.031,77.461,31.031z M78.234,39.328c-0.031,0.406,0.07,0.719,0.305,0.938
	C78.586,39.797,78.484,39.484,78.234,39.328z M78.539,38.625c-0.016,0.031-0.055,0.078-0.117,0.141s-0.109,0.109-0.141,0.141
	c-0.078,0.125-0.039,0.219,0.117,0.281C78.43,38.781,78.477,38.594,78.539,38.625z M79.172,34.43
	c0.406-0.062,0.719-0.07,0.938-0.023c-0.156-0.094-0.234-0.195-0.234-0.305c-0.75,0.094-1.117,0.141-1.102,0.141
	c0-0.016,0.023-0.086,0.07-0.211c0.031-0.078-0.016-0.109-0.141-0.094c0.062,0.188,0.031,0.305-0.094,0.352
	c-0.188,0.078-0.289,0.141-0.305,0.188C78.461,34.508,78.75,34.492,79.172,34.43z M78.938,40.195
	c-0.109,0.031-0.242,0.133-0.398,0.305C78.789,40.531,78.922,40.43,78.938,40.195z M78.82,38.367
	c-0.125,0.094-0.141,0.18-0.047,0.258c0.031-0.109,0.109-0.109,0.234,0c-0.078-0.094-0.023-0.211,0.164-0.352
	c0.188-0.125,0.242-0.242,0.164-0.352c-0.062,0.094-0.195,0.125-0.398,0.094C79,38.141,78.961,38.258,78.82,38.367z M80.133,36.68
	c0.141,0,0.211-0.031,0.211-0.094c-0.094-0.078-0.211-0.078-0.352,0c-0.125,0.078-0.141,0.156-0.047,0.234
	C79.945,36.742,80.008,36.695,80.133,36.68z M80.414,36.164c-0.219,0.047-0.32,0.109-0.305,0.188
	c0.312-0.047,0.523,0.031,0.633,0.234c0-0.078,0.078-0.234,0.234-0.469c0.125-0.203,0.148-0.359,0.07-0.469
	c-0.016,0.047-0.117,0.117-0.305,0.211c-0.172,0.094-0.25,0.133-0.234,0.117C80.633,36.07,80.602,36.133,80.414,36.164z
	 M81.703,42.047c-0.047-0.062-0.055-0.133-0.023-0.211c0.25,0.031,0.484,0.008,0.703-0.07c0,0.031-0.039,0.086-0.117,0.164
	c-0.031,0.031-0.016,0.078,0.047,0.141c-0.094-0.062-0.281-0.008-0.562,0.164C81.766,42.172,81.75,42.109,81.703,42.047z
	 M89.273,42.305c-0.109,0.016-0.211-0.062-0.305-0.234c-0.125,0.156-0.336,0.156-0.633,0c-0.062,0.016-0.078,0.047-0.047,0.094
	c0.031,0.062,0.023,0.109-0.023,0.141c-0.125,0.016-0.297,0.008-0.516-0.023c-0.156-0.016-0.305-0.008-0.445,0.023
	c0.062-0.078,0.094-0.156,0.094-0.234c-0.094,0-0.156,0.047-0.188,0.141c-0.031,0.109-0.078,0.172-0.141,0.188
	c-0.062-0.016-0.07-0.062-0.023-0.141c0.078-0.094,0.117-0.156,0.117-0.188c-0.172,0.125-0.43,0.188-0.773,0.188
	c-0.375-0.016-0.664,0.031-0.867,0.141c0-0.078,0.055-0.133,0.164-0.164c0.125-0.031,0.195-0.055,0.211-0.07
	c-0.062-0.094-0.062-0.148,0-0.164c-0.141-0.078-0.336-0.062-0.586,0.047c-0.328,0.141-0.602,0.203-0.82,0.188
	c0.016-0.047,0.078-0.078,0.188-0.094c0.094-0.016,0.141-0.062,0.141-0.141c-0.047,0.016-0.102,0.031-0.164,0.047
	c-0.078,0.016-0.133,0.023-0.164,0.023c-0.109,0.047-0.156,0.125-0.141,0.234c-0.062-0.016-0.383-0.016-0.961,0
	c0.016-0.047,0.07-0.078,0.164-0.094c0.094,0,0.148-0.016,0.164-0.047c-0.078-0.125-0.188-0.156-0.328-0.094
	c-0.266,0.109-0.391,0.164-0.375,0.164V42c-0.078,0-0.164,0.062-0.258,0.188c-0.062,0.109-0.164,0.148-0.305,0.117
	c0.016-0.031,0.078-0.117,0.188-0.258c0.078-0.078,0.047-0.148-0.094-0.211c0.141-0.047,0.555,0.008,1.242,0.164
	c-0.031,0.016-0.031-0.062,0-0.234c0.375,0.078,0.875,0.094,1.5,0.047c0.672-0.031,1.188-0.023,1.547,0.023
	c0,0.031-0.023,0.055-0.07,0.07c-0.047,0.031-0.07,0.062-0.07,0.094c0.047,0,0.094-0.016,0.141-0.047
	c0.062-0.031,0.117-0.039,0.164-0.023c0.062,0.047,0.062-0.086,0-0.398c0.156,0.203,0.234,0.336,0.234,0.398
	c-0.031-0.016,0.422-0.039,1.359-0.07c0.469-0.016,0.852,0.086,1.148,0.305c0.094-0.031,0.141-0.07,0.141-0.117
	c-0.016,0-0.031-0.031-0.047-0.094c0-0.031-0.008-0.07-0.023-0.117c0.047,0,0.102-0.016,0.164-0.047
	c0.047-0.016,0.102-0.023,0.164-0.023c-0.016,0.078-0.055,0.141-0.117,0.188c-0.016,0.016,0.023,0.055,0.117,0.117
	c0.109-0.031,0.156-0.109,0.141-0.234c0.188,0.078,0.375,0.078,0.562,0c0.016,0.078-0.016,0.141-0.094,0.188
	c-0.078,0.031-0.102,0.102-0.07,0.211c-0.188-0.109-0.367-0.125-0.539-0.047c-0.344,0.141-0.5,0.211-0.469,0.211
	c-0.078-0.031-0.148-0.094-0.211-0.188c-0.078-0.109-0.141-0.18-0.188-0.211C89.398,41.969,89.398,42.07,89.273,42.305z
	 M86.25,19.336c0.172,0.094,0.32,0.078,0.445-0.047c0.078,0.031,0.172,0.125,0.281,0.281c0.094,0.125,0.203,0.188,0.328,0.188
	c0.031-0.078,0.008-0.141-0.07-0.188c-0.062-0.047-0.086-0.117-0.07-0.211c0.047,0.016,0.109,0,0.188-0.047
	c0.047-0.031,0.109-0.039,0.188-0.023c0.016,0.109,0.062,0.219,0.141,0.328c0.109,0.141,0.227,0.164,0.352,0.07
	c-0.109-0.109-0.062-0.258,0.141-0.445c0.203-0.172,0.281-0.289,0.234-0.352c-0.297,0.062-0.734,0.078-1.312,0.047
	c-0.531-0.016-0.977,0.023-1.336,0.117C85.789,19.07,85.953,19.164,86.25,19.336z M86.391,24.328
	c0.047-0.172,0.039-0.281-0.023-0.328c-0.172,0.391-0.219,0.625-0.141,0.703C86.289,24.625,86.344,24.5,86.391,24.328z
	 M86.953,23.18c0.141-0.266,0.18-0.516,0.117-0.75c-0.344,1.016-0.523,1.508-0.539,1.477C86.547,23.875,86.688,23.633,86.953,23.18z
	 M91.383,42.305h-0.398C91,42.07,91.164,41.969,91.477,42C91.414,42.062,91.383,42.164,91.383,42.305z M91.711,41.836
	c0.031,0.016,0.094,0.062,0.188,0.141c0.062,0.047,0.125,0.078,0.188,0.094c0,0.125-0.125,0.18-0.375,0.164V41.836z"/>
</svg>
