<svg version="1.1" id="Layer_1" xmlns="http://www.w3.org/2000/svg" xmlns:xlink="http://www.w3.org/1999/xlink" x="0px" y="0px"
	 width="94.798px" height="77.58px" viewBox="0 0 94.798 77.58" enable-background="new 0 0 94.798 77.58" xml:space="preserve">
<g>
	<path d="M33.3,43.14c0.44-0.36,0.98-0.54,1.62-0.54c0.44,0,0.66,0.12,0.66,0.36c0,0.16-0.12,0.36-0.36,0.6
		c-0.8,0.761-1.74,1.611-2.82,2.55c-1.08,0.94-2.241,1.83-3.48,2.67c-1.24,0.84-2.53,1.539-3.87,2.1
		c-1.34,0.561-2.65,0.841-3.93,0.841c-1.121,0-2.1-0.21-2.94-0.631c-0.84-0.42-1.53-0.989-2.07-1.71
		c-0.54-0.72-0.951-1.569-1.23-2.55c-0.28-0.979-0.42-2.029-0.42-3.15l-1.14,0.9c-0.36,0.28-0.951,0.73-1.77,1.35
		c-0.82,0.621-1.74,1.24-2.76,1.86c-1.02,0.621-2.07,1.17-3.15,1.65c-1.08,0.479-2.04,0.72-2.88,0.72c-0.8,0-1.46-0.29-1.98-0.87
		C0.26,48.71,0,47.9,0,46.86c0-0.92,0.219-1.89,0.66-2.91c0.439-1.02,1.029-2.02,1.77-3c0.739-0.979,1.59-1.92,2.55-2.82
		s1.959-1.689,3-2.37c1.04-0.68,2.07-1.22,3.09-1.62c1.02-0.399,1.97-0.6,2.85-0.6c1,0,1.82,0.261,2.46,0.78
		c0.36-1.162,0.72-2.394,1.08-3.697c0.36-1.302,0.699-2.574,1.02-3.816c0.32-1.241,0.63-2.374,0.93-3.396
		c0.3-1.022,0.549-1.813,0.75-2.375c0.919-2.523,1.939-5.158,3.06-7.903c1.12-2.745,2.439-5.259,3.96-7.544
		c0.399-0.6,0.819-1.231,1.26-1.893c0.439-0.661,0.93-1.262,1.47-1.803c0.54-0.541,1.149-0.992,1.83-1.353
		C32.419,0.181,33.2,0,34.08,0c0.96,0,1.629,0.341,2.01,1.021c0.38,0.681,0.57,1.562,0.57,2.643c0,0.962-0.12,2.053-0.36,3.273
		c-0.24,1.222-0.55,2.443-0.93,3.665c-0.381,1.222-0.791,2.393-1.23,3.514C33.699,15.238,33.3,16.2,32.94,17
		c-0.84,1.923-1.8,3.895-2.88,5.917c-1.08,2.022-2.26,4.024-3.54,6.006c-1.281,1.983-2.64,3.896-4.08,5.738s-2.94,3.543-4.5,5.105
		c-0.041,0.361-0.06,0.761-0.06,1.202c0,0.441,0,0.881,0,1.322c0,1.361,0.129,2.512,0.39,3.454c0.26,0.941,0.6,1.692,1.02,2.253
		s0.909,0.971,1.47,1.232c0.56,0.261,1.12,0.39,1.68,0.39c0.879,0,1.83-0.219,2.85-0.66c1.02-0.439,2.019-0.99,3-1.65
		c0.979-0.66,1.899-1.37,2.76-2.13C31.91,44.42,32.66,43.74,33.3,43.14z M9,45.3c1-0.72,1.97-1.479,2.91-2.28
		c0.939-0.8,1.869-1.64,2.79-2.52c0.08-0.52,0.16-1.02,0.24-1.5c0.08-0.48,0.159-0.98,0.24-1.5c-0.281-0.72-0.621-1.23-1.02-1.53
		c-0.4-0.3-0.861-0.45-1.38-0.45c-0.92,0-1.93,0.43-3.03,1.29C8.649,37.67,7.629,38.7,6.69,39.9c-0.94,1.2-1.73,2.42-2.37,3.66
		C3.68,44.8,3.36,45.78,3.36,46.5c0,0.76,0.32,1.14,0.96,1.14c0.44,0,1.04-0.18,1.8-0.54C6.879,46.74,7.839,46.14,9,45.3z
		 M21.6,23.7c-0.24,0.801-0.501,1.73-0.78,2.79c-0.28,1.061-0.561,2.17-0.84,3.33c-0.28,1.161-0.54,2.31-0.78,3.45
		c-0.24,1.14-0.48,2.19-0.72,3.15c1.16-1.359,2.28-2.85,3.36-4.47s2.12-3.3,3.12-5.04c1-1.74,1.939-3.47,2.82-5.19
		c0.879-1.719,1.68-3.339,2.4-4.86c0.72-1.52,1.47-3.31,2.25-5.37c0.78-2.06,1.41-4.05,1.89-5.97c0.12-0.48,0.18-0.939,0.18-1.38
		c0-0.68-0.12-1.23-0.36-1.65c-0.24-0.42-0.581-0.63-1.02-0.63c-0.28,0-0.6,0.12-0.96,0.36c-0.36,0.24-0.72,0.561-1.08,0.96
		c-0.36,0.4-0.701,0.831-1.02,1.29c-0.321,0.46-0.6,0.891-0.84,1.29c-1.6,2.841-3.01,5.771-4.23,8.79
		C23.77,17.57,22.64,20.62,21.6,23.7z"/>
	<path d="M65.699,42.3c0.2-0.2,0.45-0.339,0.75-0.42c0.3-0.08,0.59-0.12,0.87-0.12c0.44,0,0.66,0.12,0.66,0.36
		c0,0.161-0.12,0.36-0.36,0.6c-0.801,0.76-1.84,1.65-3.12,2.67c-1.281,1.02-2.65,1.98-4.11,2.88c-1.461,0.9-2.931,1.66-4.41,2.279
		c-1.48,0.62-2.841,0.931-4.08,0.931c-1.08,0-1.94-0.23-2.58-0.69c-0.64-0.46-1.14-1.069-1.5-1.83c-0.36-0.759-0.6-1.62-0.72-2.58
		c-0.12-0.96-0.18-1.92-0.18-2.88c-0.321,0.24-0.91,0.72-1.77,1.44c-0.861,0.72-1.86,1.46-3,2.22c-1.14,0.76-2.32,1.44-3.54,2.04
		c-1.221,0.6-2.31,0.9-3.27,0.9c-0.801,0-1.48-0.279-2.04-0.84c-0.561-0.561-0.84-1.38-0.84-2.46c0-1.4,0.489-2.94,1.47-4.62
		c0.98-1.68,2.2-3.26,3.66-4.74c1.46-1.479,3.02-2.709,4.68-3.69c1.659-0.98,3.189-1.47,4.59-1.47c1.32,0,2.34,0.48,3.06,1.44
		c0.12-0.32,0.35-0.74,0.69-1.26c0.339-0.52,0.85-0.78,1.53-0.78c0.48,0,0.819,0.12,1.02,0.36c-0.081,0.401-0.3,1.043-0.66,1.927
		s-0.741,1.887-1.14,3.01c-0.4,1.124-0.76,2.289-1.08,3.492c-0.32,1.204-0.48,2.308-0.48,3.312c0,2.167,0.35,3.683,1.05,4.546
		c0.699,0.862,1.59,1.293,2.67,1.293c0.96,0,2.01-0.27,3.15-0.811c1.14-0.539,2.27-1.189,3.39-1.949c1.119-0.759,2.18-1.56,3.18-2.4
		C64.238,43.62,65.059,42.9,65.699,42.3z M41.459,45.18c0.48-0.36,1.089-0.859,1.83-1.5c0.74-0.639,1.449-1.38,2.13-2.22
		c0.68-0.84,1.299-1.73,1.86-2.67c0.56-0.939,0.9-1.89,1.02-2.85c-0.52-1.28-1.34-1.92-2.46-1.92c-1.041,0-2.15,0.47-3.33,1.41
		c-1.18,0.94-2.26,2.061-3.24,3.36c-0.981,1.301-1.8,2.64-2.46,4.02c-0.66,1.38-0.99,2.49-0.99,3.33c0,0.84,0.36,1.26,1.08,1.26
		c0.439,0,1.029-0.17,1.77-0.51C39.409,46.55,40.338,45.98,41.459,45.18z"/>
	<path d="M69.058,30c0.08-0.24,0.35-0.43,0.81-0.57c0.459-0.14,0.889-0.21,1.29-0.21c0.48,0,0.721,0.101,0.721,0.3
		c-0.321,1.36-0.66,2.77-1.021,4.23c-0.36,1.46-0.69,2.89-0.99,4.29c-0.3,1.401-0.54,2.721-0.72,3.96c-0.18,1.24-0.27,2.3-0.27,3.18
		c0,1,0.08,1.72,0.24,2.16c0.159,0.44,0.459,0.66,0.9,0.66c0.479,0.04,1.02-0.15,1.62-0.57c0.6-0.42,1.119-0.789,1.56-1.11
		c2.08-1.6,3.64-3.12,4.681-4.56c1.039-1.44,1.859-2.709,2.46-3.81c0.6-1.1,1.129-1.97,1.59-2.61c0.459-0.64,1.189-0.96,2.189-0.96
		c0.36,0,0.54,0.1,0.54,0.3c-0.359,1.601-0.771,3.851-1.229,6.75c-0.461,2.901-1.011,6.07-1.65,9.51
		c1.96-1.52,3.909-2.94,5.851-4.26c1.939-1.32,3.75-2.619,5.43-3.9c0.159-0.12,0.439-0.18,0.84-0.18c0.24,0,0.45,0.03,0.63,0.09
		s0.271,0.15,0.271,0.27c0,0.12-0.101,0.26-0.301,0.42c-1.8,1.4-3.891,2.91-6.27,4.53c-2.38,1.62-4.671,3.31-6.87,5.07
		c-0.6,2.96-1.28,5.91-2.04,8.85c-0.76,2.94-1.601,5.58-2.52,7.92c-0.921,2.34-1.941,4.23-3.061,5.67
		c-1.12,1.44-2.36,2.16-3.72,2.16c-1.27,0-2.227-0.44-2.872-1.319c-0.646-0.881-0.968-1.86-0.968-2.94c0-1.12,0.229-2.34,0.69-3.66
		c0.459-1.32,1.029-2.631,1.71-3.93c0.68-1.301,1.399-2.53,2.16-3.69c0.76-1.16,1.479-2.14,2.16-2.939
		c0.84-1.001,1.74-1.971,2.7-2.91c0.96-0.94,1.979-1.851,3.06-2.73c0.48-2.2,0.909-4.279,1.29-6.24c0.38-1.959,0.729-3.96,1.05-6
		c-0.88,1.24-1.82,2.4-2.819,3.48c-1.001,1.08-2.001,2.01-3,2.79c-1.001,0.78-1.99,1.39-2.971,1.83s-1.91,0.66-2.79,0.66
		c-1.281,0-2.17-0.41-2.67-1.229c-0.5-0.82-0.75-1.891-0.75-3.211c0-1.04,0.108-2.199,0.323-3.48c0.216-1.279,0.49-2.6,0.822-3.96
		c0.333-1.359,0.676-2.73,1.028-4.11S68.819,31.28,69.058,30z M78.117,55.68c-0.561,0.479-1.07,0.969-1.529,1.47
		c-0.461,0.5-0.891,0.97-1.29,1.41c-0.441,0.479-1.051,1.249-1.83,2.31c-0.78,1.06-1.57,2.229-2.37,3.51
		c-0.801,1.28-1.491,2.61-2.07,3.99c-0.58,1.38-0.87,2.63-0.87,3.75c0,0.76,0.169,1.41,0.51,1.95c0.339,0.54,0.75,0.81,1.23,0.81
		c0.721,0,1.46-0.569,2.22-1.71c0.76-1.14,1.479-2.58,2.16-4.319c0.68-1.74,1.329-3.651,1.95-5.73c0.62-2.08,1.149-4.061,1.59-5.939
		L78.117,55.68z"/>
</g>
</svg>
