<svg version="1.1" id="Layer_1" xmlns="http://www.w3.org/2000/svg" xmlns:xlink="http://www.w3.org/1999/xlink" x="0px" y="0px"
	 width="144px" height="144px" viewBox="0 0 144 144" enable-background="new 0 0 144 144" xml:space="preserve">
<path fill="#27AAE1" stroke="#000000" stroke-width="2" stroke-miterlimit="10" d="M14.43,72.014c0-10.132,1.772-19.285,5.32-27.455
	c3.544-8.17,8.36-15.167,14.44-20.995c6.08-5.825,13.172-10.29,21.28-13.395c8.105-3.102,16.72-4.655,25.84-4.655
	c7.22,0,13.646,0.698,19.285,2.09c5.635,1.396,10.479,2.978,14.535,4.75c4.684,2.028,8.74,4.246,12.16,6.65l-19.951,35.15
	c-2.027-1.52-4.244-2.975-6.649-4.37c-2.155-1.012-4.72-1.995-7.694-2.945c-2.979-0.95-6.365-1.425-10.166-1.425
	c-3.928,0-7.537,0.698-10.83,2.09c-3.295,1.395-6.175,3.295-8.645,5.7c-2.47,2.408-4.403,5.225-5.795,8.455
	c-1.396,3.23-2.09,6.683-2.09,10.355c0,3.675,0.728,7.125,2.185,10.355c1.455,3.23,3.45,6.051,5.985,8.455
	c2.533,2.408,5.51,4.308,8.93,5.7c3.42,1.396,7.154,2.09,11.21,2.09c4.052,0,7.663-0.505,10.83-1.521
	c3.165-1.012,5.825-2.152,7.979-3.42c2.533-1.393,4.75-3.039,6.65-4.939l19.95,35.15c-3.42,2.787-7.476,5.257-12.16,7.409
	c-4.056,1.775-8.93,3.421-14.63,4.94s-12.225,2.279-19.57,2.279c-9.88,0-19-1.614-27.36-4.845c-8.36-3.229-15.58-7.757-21.66-13.585
	c-6.08-5.824-10.83-12.824-14.25-20.994C16.14,90.919,14.43,81.895,14.43,72.014z M38.371,72.014c0-6.08,1.045-11.78,3.135-17.1
	c2.09-5.32,5.035-9.942,8.835-13.87c3.8-3.924,8.422-7.03,13.87-9.31c5.445-2.28,11.524-3.42,18.24-3.42
	c3.292,0,6.237,0.223,8.835,0.665c2.595,0.445,4.779,0.983,6.555,1.615c2.152,0.635,3.99,1.395,5.511,2.28l2.659-4.56
	c-2.027-0.884-4.18-1.71-6.459-2.47c-2.156-0.632-4.625-1.203-7.41-1.71c-2.788-0.505-6.018-0.76-9.69-0.76
	c-6.46,0-12.635,1.14-18.525,3.42c-5.89,2.28-11.085,5.543-15.58,9.785c-4.498,4.246-8.107,9.375-10.83,15.39
	c-2.725,6.018-4.085,12.7-4.085,20.045c0,7.475,1.297,14.187,3.895,20.14c2.595,5.955,6.175,11.053,10.735,15.295
	c4.56,4.245,9.88,7.505,15.96,9.785c6.08,2.279,12.54,3.42,19.38,3.42c3.8,0,7.221-0.314,10.26-0.95
	c3.04-0.632,5.635-1.33,7.79-2.09c2.405-0.885,4.56-1.899,6.46-3.04l-2.66-4.561c-1.647,1.141-3.547,2.09-5.699,2.851
	c-1.9,0.76-4.18,1.425-6.84,1.995s-5.766,0.855-9.311,0.855c-6.968,0-13.238-1.141-18.81-3.421
	c-5.575-2.28-10.292-5.382-14.155-9.31c-3.866-3.925-6.84-8.551-8.93-13.87C39.416,83.794,38.371,78.094,38.371,72.014z"/>
</svg>
