<svg version="1.1" id="Layer_1" xmlns="http://www.w3.org/2000/svg" xmlns:xlink="http://www.w3.org/1999/xlink" x="0px" y="0px"
	 width="144px" height="144px" viewBox="0 0 144 144" enable-background="new 0 0 144 144" xml:space="preserve">
<path fill="#D7DF23" stroke="#000000" stroke-width="2" stroke-miterlimit="10" d="M17.273,136.284V9.554h35.15
	c11.905,0,22.515,1.33,31.825,3.99c9.311,2.66,17.162,6.65,23.561,11.97c6.395,5.32,11.272,11.94,14.63,19.855
	c3.354,7.917,5.035,17.07,5.035,27.455c0,10.388-1.681,19.54-5.035,27.455c-3.357,7.918-8.235,14.535-14.63,19.855
	c-6.398,5.319-14.25,9.342-23.561,12.064c-9.31,2.725-19.92,4.085-31.825,4.085H17.273z M36.273,121.084h16.15
	c18.493,0,32.458-4.209,41.895-12.635c9.436-8.422,14.155-20.297,14.155-35.625c0-15.325-4.72-27.17-14.155-35.53
	c-9.438-8.36-23.402-12.54-41.895-12.54h-16.15V121.084z M41.213,116.524v-87.21h11.21c16.085,0,28.595,3.643,37.526,10.925
	c8.93,7.285,13.395,18.145,13.395,32.585c0,14.439-4.465,25.336-13.395,32.68c-8.931,7.348-21.441,11.021-37.526,11.021H41.213z
	 M57.744,100.184c9.5,0,16.844-2.246,22.04-6.744c5.193-4.495,7.791-11.367,7.791-20.615c0-9.245-2.598-16.085-7.791-20.52
	c-5.195-4.432-12.54-6.65-22.04-6.65V100.184z"/>
</svg>
