<svg version="1.1" id="Layer_1" xmlns="http://www.w3.org/2000/svg" xmlns:xlink="http://www.w3.org/1999/xlink" x="0px" y="0px"
	 width="43.508px" height="43.478px" viewBox="0 0 43.508 43.478" enable-background="new 0 0 43.508 43.478" xml:space="preserve">
<rect x="-47.917" y="-19.717" fill="none" width="117.272" height="113.182"/>
<g>
	<path fill="#FFF200" stroke="#000000" stroke-width="0.5" stroke-miterlimit="10" d="M37.194,15.484
		c1.699,0,3.135,0.601,4.307,1.802s1.758,2.681,1.758,4.438c0,1.777-0.586,3.262-1.758,4.453c-1.172,1.191-2.607,1.787-4.307,1.787
		h-0.41l0.176,0.205c0.625,0.625,1.094,1.285,1.406,1.978c0.312,0.693,0.469,1.45,0.469,2.271c0,1.777-0.621,3.281-1.861,4.512
		s-2.738,1.845-4.496,1.845c-0.82,0-1.607-0.156-2.359-0.469c-0.752-0.312-1.41-0.751-1.977-1.318l-0.176-0.205l0.059,0.264v0.176
		c0,1.64-0.605,3.052-1.816,4.234c-1.212,1.182-2.686,1.771-4.424,1.771c-1.739,0-3.125-0.498-4.16-1.494
		c-1.036-0.996-1.748-2.5-2.139-4.511l0.059-0.176v-0.264l-0.176,0.205c-0.586,0.567-1.25,1.006-1.992,1.318
		c-0.743,0.312-1.523,0.469-2.344,0.469c-1.758,0-3.258-0.615-4.498-1.845c-1.241-1.23-1.86-2.734-1.86-4.512
		c0-0.82,0.156-1.577,0.469-2.271c0.312-0.693,0.781-1.352,1.406-1.978l0.176-0.205h-0.41c-1.699,0-3.135-0.596-4.307-1.787
		c-1.172-1.191-1.758-2.676-1.758-4.453c0-1.758,0.586-3.237,1.758-4.438s2.607-1.802,4.307-1.802h0.41l-0.176-0.176
		c-0.625-0.625-1.094-1.289-1.406-1.992c-0.312-0.703-0.469-1.455-0.469-2.256c0-1.777,0.62-3.281,1.86-4.512
		c1.24-1.23,2.74-1.846,4.498-1.846c0.82,0,1.601,0.157,2.344,0.469c0.742,0.312,1.406,0.752,1.992,1.318l0.176,0.176l-0.059-0.234
		V6.256c0-1.68,0.596-3.101,1.787-4.263c1.19-1.162,2.676-1.743,4.453-1.743c1.718,0,3.1,0.494,4.145,1.479
		c1.045,0.986,1.763,2.495,2.154,4.526l-0.059,0.176v0.234l0.176-0.176c0.566-0.566,1.225-1.006,1.977-1.318
		c0.752-0.312,1.539-0.469,2.359-0.469c1.758,0,3.256,0.62,4.496,1.86c1.24,1.241,1.861,2.739,1.861,4.497
		c0,0.801-0.157,1.553-0.469,2.256c-0.312,0.703-0.781,1.367-1.406,1.992l-0.176,0.176H37.194z M15.133,24.127
		c-0.02,0-0.049-0.088-0.088-0.264c-0.04-0.176-0.078-0.322-0.117-0.439c-1.953,0.508-3.502,0.875-4.645,1.099
		c-1.143,0.225-2.046,0.337-2.709,0.337c-1.133,0-2.037-0.283-2.71-0.85c-0.674-0.566-1.011-1.328-1.011-2.285
		c0-0.918,0.337-1.665,1.011-2.241c0.674-0.576,1.557-0.864,2.652-0.864c0.645,0,1.537,0.107,2.68,0.322
		c1.143,0.215,2.721,0.586,4.732,1.113c0.039-0.039,0.072-0.136,0.102-0.293c0.029-0.156,0.055-0.303,0.074-0.439
		c-1.974-0.839-3.609-1.455-4.908-1.846c-1.299-0.391-2.377-0.586-3.237-0.586c-1.563,0-2.842,0.45-3.838,1.348
		c-0.996,0.898-1.494,2.061-1.494,3.486c0,1.446,0.493,2.618,1.479,3.516c0.986,0.898,2.271,1.348,3.853,1.348
		c0.918,0,2.045-0.2,3.383-0.601C11.68,25.587,13.277,24.967,15.133,24.127z M18.795,15.367c-1.25-3.32-2.486-5.698-3.707-7.134
		S12.497,6.08,10.973,6.08c-1.348,0-2.496,0.474-3.443,1.421c-0.947,0.948-1.42,2.114-1.42,3.501c0,1.504,0.703,2.852,2.11,4.043
		c1.406,1.191,3.789,2.442,7.148,3.75l0.352-0.732c-2.97-1.66-4.962-2.974-5.977-3.94c-1.016-0.967-1.523-1.948-1.523-2.944
		c0-0.801,0.297-1.499,0.893-2.095c0.596-0.596,1.275-0.894,2.037-0.894c0.956,0,1.898,0.469,2.826,1.406s2.311,2.988,4.146,6.152
		L18.795,15.367z M18.766,28.082c-0.099-0.039-0.195-0.083-0.293-0.132c-0.099-0.048-0.205-0.112-0.322-0.19
		c-1.856,3.145-3.248,5.186-4.176,6.123s-1.87,1.406-2.826,1.406c-0.781,0-1.465-0.297-2.051-0.894
		c-0.586-0.596-0.879-1.293-0.879-2.095c0-0.996,0.508-1.978,1.523-2.944c1.015-0.967,3.007-2.29,5.977-3.97l-0.352-0.703
		c-3.359,1.289-5.742,2.534-7.148,3.735c-1.407,1.201-2.11,2.554-2.11,4.058c0,1.367,0.479,2.53,1.436,3.486
		c0.956,0.957,2.099,1.436,3.428,1.436c1.523,0,2.895-0.718,4.115-2.153S17.536,31.422,18.766,28.082z M27.292,21.725
		c0-1.523-0.538-2.822-1.611-3.896c-1.074-1.074-2.373-1.611-3.896-1.611c-1.563,0-2.887,0.538-3.971,1.611
		c-1.084,1.074-1.625,2.373-1.625,3.896c0,1.563,0.537,2.876,1.611,3.94c1.073,1.065,2.383,1.597,3.926,1.597
		c1.542,0,2.855-0.537,3.939-1.611C26.749,24.577,27.292,23.268,27.292,21.725z M26.588,6.432c-0.274-1.601-0.811-2.802-1.611-3.604
		c-0.802-0.801-1.865-1.201-3.193-1.201c-1.465,0-2.652,0.488-3.561,1.465c-0.908,0.977-1.361,2.256-1.361,3.838
		c0,0.86,0.199,1.963,0.6,3.311s1.021,2.979,1.861,4.893c0.117-0.039,0.229-0.078,0.336-0.117c0.107-0.039,0.25-0.078,0.426-0.117
		c-0.626-2.52-1.031-4.243-1.217-5.171C18.682,8.8,18.59,8.062,18.59,7.516c0-1.094,0.293-1.978,0.879-2.651
		s1.337-1.011,2.256-1.011c0.938,0,1.699,0.337,2.285,1.011s0.879,1.558,0.879,2.651c0,0.605-0.099,1.406-0.293,2.402
		c-0.195,0.996-0.597,2.656-1.201,4.98c0.059,0.02,0.17,0.054,0.336,0.103c0.166,0.049,0.318,0.093,0.455,0.132
		c0.839-1.934,1.449-3.569,1.83-4.907c0.381-1.337,0.572-2.485,0.572-3.442V6.432z M19.323,28.346
		c-0.84,1.915-1.461,3.545-1.861,4.893s-0.6,2.451-0.6,3.311c0,1.582,0.449,2.857,1.348,3.824c0.897,0.967,2.069,1.449,3.516,1.449
		c1.445,0,2.626-0.492,3.545-1.479c0.918-0.986,1.377-2.271,1.377-3.853c0-0.839-0.191-1.89-0.572-3.149s-1.01-2.925-1.889-4.995
		c-0.137,0.059-0.362,0.127-0.674,0.205c-0.04,0.02-0.078,0.029-0.117,0.029c0.645,2.52,1.055,4.244,1.23,5.171
		c0.176,0.928,0.264,1.666,0.264,2.212c0,1.074-0.289,1.953-0.865,2.636c-0.576,0.685-1.322,1.025-2.24,1.025
		c-0.938,0-1.705-0.336-2.301-1.01c-0.596-0.674-0.893-1.558-0.893-2.652c0-0.645,0.102-1.479,0.307-2.505s0.611-2.651,1.217-4.878
		c-0.04,0-0.088-0.01-0.146-0.029C19.674,28.473,19.458,28.404,19.323,28.346z M28.141,18.795c3.358-1.308,5.736-2.559,7.133-3.75
		c1.396-1.191,2.096-2.539,2.096-4.043c0-1.367-0.475-2.529-1.422-3.486C35,6.559,33.864,6.08,32.536,6.08
		c-1.523,0-2.896,0.718-4.117,2.153s-2.445,3.823-3.676,7.163c0.077,0.04,0.17,0.088,0.277,0.146s0.221,0.117,0.338,0.176
		c1.718-3.007,3.065-5.014,4.043-6.021c0.977-1.006,1.952-1.509,2.93-1.509c0.78,0,1.469,0.298,2.064,0.894
		c0.596,0.596,0.895,1.294,0.895,2.095c0,0.996-0.509,1.978-1.523,2.944c-1.016,0.967-3.008,2.29-5.977,3.97
		c0.098,0.157,0.17,0.289,0.219,0.396C28.057,18.595,28.101,18.697,28.141,18.795z M24.743,28.082
		c1.23,3.34,2.455,5.728,3.676,7.163s2.594,2.153,4.117,2.153c1.308,0,2.441-0.483,3.398-1.45c0.956-0.967,1.436-2.124,1.436-3.472
		c0-1.504-0.699-2.856-2.096-4.058s-3.774-2.446-7.133-3.735l-0.352,0.703c2.969,1.68,4.961,3.003,5.977,3.97
		c1.015,0.967,1.523,1.948,1.523,2.944c0,0.801-0.293,1.499-0.879,2.095c-0.586,0.596-1.279,0.894-2.08,0.894
		c-0.978,0-1.953-0.508-2.93-1.523c-0.978-1.015-2.325-3.027-4.043-6.035c-0.078,0.04-0.234,0.127-0.469,0.264
		C24.831,28.034,24.782,28.063,24.743,28.082z M28.375,24.127c1.914,0.86,3.529,1.484,4.848,1.875
		c1.318,0.391,2.428,0.586,3.326,0.586c1.582,0,2.865-0.449,3.852-1.348c0.986-0.898,1.48-2.07,1.48-3.516
		c0-1.425-0.498-2.588-1.494-3.486c-0.996-0.898-2.275-1.348-3.838-1.348c-0.86,0-1.944,0.195-3.252,0.586
		c-1.309,0.391-2.94,1.006-4.893,1.846c0.019,0.176,0.043,0.322,0.072,0.439s0.055,0.215,0.074,0.293
		c1.973-0.508,3.529-0.874,4.672-1.099c1.143-0.224,2.047-0.337,2.711-0.337c1.113,0,2.011,0.289,2.695,0.864
		c0.684,0.576,1.025,1.323,1.025,2.241c0,0.918-0.338,1.67-1.012,2.256s-1.557,0.879-2.65,0.879c-0.685,0-1.602-0.112-2.754-0.337
		c-1.153-0.224-2.706-0.59-4.658-1.099c-0.078,0.176-0.133,0.327-0.162,0.454C28.389,24.005,28.375,24.088,28.375,24.127z"/>
</g>
</svg>
